<mxfile host="app.diagrams.net" modified="2023-10-17T11:35:32.905Z" agent="Mozilla/5.0 (Macintosh; Intel Mac OS X 10_15_7) AppleWebKit/537.36 (KHTML, like Gecko) Chrome/117.0.0.0 Safari/537.36" etag="ppAwURr2zFGLNWbieVAg" version="22.0.0" type="device">
  <diagram name="PÃ¡gina-1" id="rIqUe4WyIogmE3zDdpFF">
    <mxGraphModel dx="1744" dy="797" grid="1" gridSize="10" guides="1" tooltips="1" connect="1" arrows="1" fold="1" page="1" pageScale="1" pageWidth="827" pageHeight="1169" math="0" shadow="0">
      <root>
        <mxCell id="0" />
        <mxCell id="1" parent="0" />
        <mxCell id="FHGa05HmV8W9KMMEZWDE-86" value="" style="html=1;whiteSpace=wrap;aspect=fixed;shape=isoRectangle;strokeWidth=1;fillColor=#E5FAE4;strokeColor=#82b366;container=0;" parent="1" vertex="1">
          <mxGeometry x="179.47" y="270" width="150" height="90" as="geometry" />
        </mxCell>
        <mxCell id="FHGa05HmV8W9KMMEZWDE-87" value="" style="html=1;whiteSpace=wrap;aspect=fixed;shape=isoRectangle;rotation=-240;strokeWidth=1;fillColor=#d5e8d4;strokeColor=#82b366;container=0;" parent="1" vertex="1">
          <mxGeometry x="217.47" y="336" width="150" height="90" as="geometry" />
        </mxCell>
        <mxCell id="FHGa05HmV8W9KMMEZWDE-88" value="" style="html=1;whiteSpace=wrap;aspect=fixed;shape=isoRectangle;rotation=60;flipV=1;direction=west;fillColor=#BBCCBA;strokeColor=#82b366;container=0;" parent="1" vertex="1">
          <mxGeometry x="141.47" y="336" width="150" height="90" as="geometry" />
        </mxCell>
        <mxCell id="FHGa05HmV8W9KMMEZWDE-90" value="" style="html=1;whiteSpace=wrap;aspect=fixed;shape=isoRectangle;strokeWidth=1;fillColor=#E5FAE4;strokeColor=#82b366;container=0;" parent="1" vertex="1">
          <mxGeometry x="102" y="315" width="150" height="90" as="geometry" />
        </mxCell>
        <mxCell id="FHGa05HmV8W9KMMEZWDE-91" value="" style="html=1;whiteSpace=wrap;aspect=fixed;shape=isoRectangle;rotation=-240;strokeWidth=1;fillColor=#d5e8d4;strokeColor=#82b366;container=0;" parent="1" vertex="1">
          <mxGeometry x="140" y="381" width="150" height="90" as="geometry" />
        </mxCell>
        <mxCell id="FHGa05HmV8W9KMMEZWDE-92" value="" style="html=1;whiteSpace=wrap;aspect=fixed;shape=isoRectangle;rotation=60;flipV=1;direction=west;fillColor=#BBCCBA;strokeColor=#82b366;container=0;" parent="1" vertex="1">
          <mxGeometry x="64" y="381" width="150" height="90" as="geometry" />
        </mxCell>
        <mxCell id="FHGa05HmV8W9KMMEZWDE-142" value="" style="html=1;whiteSpace=wrap;aspect=fixed;shape=isoRectangle;strokeWidth=1;fillColor=#E5FAE4;strokeColor=#82b366;container=0;" parent="1" vertex="1">
          <mxGeometry x="255.94" y="315" width="150" height="90" as="geometry" />
        </mxCell>
        <mxCell id="FHGa05HmV8W9KMMEZWDE-143" value="" style="html=1;whiteSpace=wrap;aspect=fixed;shape=isoRectangle;rotation=-240;strokeWidth=1;fillColor=#d5e8d4;strokeColor=#82b366;container=0;" parent="1" vertex="1">
          <mxGeometry x="293.94" y="381" width="150" height="90" as="geometry" />
        </mxCell>
        <mxCell id="FHGa05HmV8W9KMMEZWDE-144" value="" style="html=1;whiteSpace=wrap;aspect=fixed;shape=isoRectangle;rotation=60;flipV=1;direction=west;fillColor=#BBCCBA;strokeColor=#82b366;container=0;" parent="1" vertex="1">
          <mxGeometry x="217.94" y="381" width="150" height="90" as="geometry" />
        </mxCell>
        <mxCell id="FHGa05HmV8W9KMMEZWDE-146" value="" style="html=1;whiteSpace=wrap;aspect=fixed;shape=isoRectangle;strokeWidth=1;fillColor=#E5FAE4;strokeColor=#82b366;container=0;" parent="1" vertex="1">
          <mxGeometry x="178.47" y="360" width="150" height="90" as="geometry" />
        </mxCell>
        <mxCell id="FHGa05HmV8W9KMMEZWDE-147" value="" style="html=1;whiteSpace=wrap;aspect=fixed;shape=isoRectangle;rotation=-240;strokeWidth=1;fillColor=#d5e8d4;strokeColor=#82b366;container=0;" parent="1" vertex="1">
          <mxGeometry x="216.47" y="426" width="150" height="90" as="geometry" />
        </mxCell>
        <mxCell id="FHGa05HmV8W9KMMEZWDE-148" value="" style="html=1;whiteSpace=wrap;aspect=fixed;shape=isoRectangle;rotation=60;flipV=1;direction=west;fillColor=#BBCCBA;strokeColor=#82b366;container=0;" parent="1" vertex="1">
          <mxGeometry x="140.47" y="426" width="150" height="90" as="geometry" />
        </mxCell>
        <mxCell id="FHGa05HmV8W9KMMEZWDE-150" value="" style="html=1;whiteSpace=wrap;aspect=fixed;shape=isoRectangle;strokeWidth=1;fillColor=#E5FAE4;strokeColor=#82b366;container=0;" parent="1" vertex="1">
          <mxGeometry x="332.88" y="360" width="150" height="90" as="geometry" />
        </mxCell>
        <mxCell id="FHGa05HmV8W9KMMEZWDE-151" value="" style="html=1;whiteSpace=wrap;aspect=fixed;shape=isoRectangle;rotation=-240;strokeWidth=1;fillColor=#d5e8d4;strokeColor=#82b366;container=0;" parent="1" vertex="1">
          <mxGeometry x="370.88" y="426" width="150" height="90" as="geometry" />
        </mxCell>
        <mxCell id="FHGa05HmV8W9KMMEZWDE-152" value="" style="html=1;whiteSpace=wrap;aspect=fixed;shape=isoRectangle;rotation=60;flipV=1;direction=west;fillColor=#BBCCBA;strokeColor=#82b366;container=0;" parent="1" vertex="1">
          <mxGeometry x="294.88" y="426" width="150" height="90" as="geometry" />
        </mxCell>
        <mxCell id="FHGa05HmV8W9KMMEZWDE-154" value="" style="html=1;whiteSpace=wrap;aspect=fixed;shape=isoRectangle;strokeWidth=1;fillColor=#E5FAE4;strokeColor=#82b366;container=0;" parent="1" vertex="1">
          <mxGeometry x="255.41" y="405" width="150" height="90" as="geometry" />
        </mxCell>
        <mxCell id="FHGa05HmV8W9KMMEZWDE-155" value="" style="html=1;whiteSpace=wrap;aspect=fixed;shape=isoRectangle;rotation=-240;strokeWidth=1;fillColor=#d5e8d4;strokeColor=#82b366;container=0;" parent="1" vertex="1">
          <mxGeometry x="293.40999999999997" y="471" width="150" height="90" as="geometry" />
        </mxCell>
        <mxCell id="FHGa05HmV8W9KMMEZWDE-156" value="" style="html=1;whiteSpace=wrap;aspect=fixed;shape=isoRectangle;rotation=60;flipV=1;direction=west;fillColor=#BBCCBA;strokeColor=#82b366;container=0;" parent="1" vertex="1">
          <mxGeometry x="217.41" y="471" width="150" height="90" as="geometry" />
        </mxCell>
        <mxCell id="FHGa05HmV8W9KMMEZWDE-158" value="" style="html=1;whiteSpace=wrap;aspect=fixed;shape=isoRectangle;strokeWidth=1;fillColor=#E5FAE4;strokeColor=#82b366;container=0;" parent="1" vertex="1">
          <mxGeometry x="409.34999999999997" y="405" width="150" height="90" as="geometry" />
        </mxCell>
        <mxCell id="FHGa05HmV8W9KMMEZWDE-159" value="" style="html=1;whiteSpace=wrap;aspect=fixed;shape=isoRectangle;rotation=-240;strokeWidth=1;fillColor=#d5e8d4;strokeColor=#82b366;container=0;" parent="1" vertex="1">
          <mxGeometry x="447.34999999999997" y="471" width="150" height="90" as="geometry" />
        </mxCell>
        <mxCell id="FHGa05HmV8W9KMMEZWDE-160" value="" style="html=1;whiteSpace=wrap;aspect=fixed;shape=isoRectangle;rotation=60;flipV=1;direction=west;fillColor=#BBCCBA;strokeColor=#82b366;container=0;" parent="1" vertex="1">
          <mxGeometry x="371.34999999999997" y="471" width="150" height="90" as="geometry" />
        </mxCell>
        <mxCell id="FHGa05HmV8W9KMMEZWDE-162" value="" style="html=1;whiteSpace=wrap;aspect=fixed;shape=isoRectangle;strokeWidth=1;fillColor=#E5FAE4;strokeColor=#82b366;container=0;" parent="1" vertex="1">
          <mxGeometry x="331.87999999999994" y="450" width="150" height="90" as="geometry" />
        </mxCell>
        <mxCell id="FHGa05HmV8W9KMMEZWDE-163" value="" style="html=1;whiteSpace=wrap;aspect=fixed;shape=isoRectangle;rotation=-240;strokeWidth=1;fillColor=#d5e8d4;strokeColor=#82b366;container=0;" parent="1" vertex="1">
          <mxGeometry x="369.87999999999994" y="516" width="150" height="90" as="geometry" />
        </mxCell>
        <mxCell id="FHGa05HmV8W9KMMEZWDE-164" value="" style="html=1;whiteSpace=wrap;aspect=fixed;shape=isoRectangle;rotation=60;flipV=1;direction=west;fillColor=#BBCCBA;strokeColor=#82b366;container=0;" parent="1" vertex="1">
          <mxGeometry x="293.87999999999994" y="516" width="150" height="90" as="geometry" />
        </mxCell>
        <mxCell id="FHGa05HmV8W9KMMEZWDE-166" value="" style="html=1;whiteSpace=wrap;aspect=fixed;shape=isoRectangle;strokeWidth=1;fillColor=#E5FAE4;strokeColor=#82b366;container=0;" parent="1" vertex="1">
          <mxGeometry x="486.29" y="450" width="150" height="90" as="geometry" />
        </mxCell>
        <mxCell id="FHGa05HmV8W9KMMEZWDE-167" value="" style="html=1;whiteSpace=wrap;aspect=fixed;shape=isoRectangle;rotation=-240;strokeWidth=1;fillColor=#EAFFE9;strokeColor=#82b366;container=0;" parent="1" vertex="1">
          <mxGeometry x="524.29" y="516" width="150" height="90" as="geometry" />
        </mxCell>
        <mxCell id="FHGa05HmV8W9KMMEZWDE-168" value="" style="html=1;whiteSpace=wrap;aspect=fixed;shape=isoRectangle;rotation=60;flipV=1;direction=west;fillColor=#BBCCBA;strokeColor=#82b366;container=0;" parent="1" vertex="1">
          <mxGeometry x="448.29" y="516" width="150" height="90" as="geometry" />
        </mxCell>
        <mxCell id="FHGa05HmV8W9KMMEZWDE-170" value="" style="html=1;whiteSpace=wrap;aspect=fixed;shape=isoRectangle;strokeWidth=1;fillColor=#E5FAE4;strokeColor=#82b366;container=0;" parent="1" vertex="1">
          <mxGeometry x="408.82" y="495" width="150" height="90" as="geometry" />
        </mxCell>
        <mxCell id="FHGa05HmV8W9KMMEZWDE-171" value="" style="html=1;whiteSpace=wrap;aspect=fixed;shape=isoRectangle;rotation=-240;strokeWidth=1;fillColor=#EAFFE9;strokeColor=#82b366;container=0;" parent="1" vertex="1">
          <mxGeometry x="446.82" y="561" width="150" height="90" as="geometry" />
        </mxCell>
        <mxCell id="FHGa05HmV8W9KMMEZWDE-172" value="" style="html=1;whiteSpace=wrap;aspect=fixed;shape=isoRectangle;rotation=60;flipV=1;direction=west;fillColor=#bbccbb;strokeColor=#d6b656;container=0;" parent="1" vertex="1">
          <mxGeometry x="370.82" y="561" width="150" height="90" as="geometry" />
        </mxCell>
        <mxCell id="FHGa05HmV8W9KMMEZWDE-174" value="" style="html=1;whiteSpace=wrap;aspect=fixed;shape=isoRectangle;strokeWidth=1;fillColor=#E5FAE4;strokeColor=#82b366;container=0;" parent="1" vertex="1">
          <mxGeometry x="179.47" y="181" width="150" height="90" as="geometry" />
        </mxCell>
        <mxCell id="FHGa05HmV8W9KMMEZWDE-175" value="" style="html=1;whiteSpace=wrap;aspect=fixed;shape=isoRectangle;rotation=-240;strokeWidth=1;fillColor=#d5e8d4;strokeColor=#82b366;container=0;" parent="1" vertex="1">
          <mxGeometry x="217.47" y="247" width="150" height="90" as="geometry" />
        </mxCell>
        <mxCell id="FHGa05HmV8W9KMMEZWDE-176" value="" style="html=1;whiteSpace=wrap;aspect=fixed;shape=isoRectangle;rotation=60;flipV=1;direction=west;fillColor=#BBCCBA;strokeColor=#82b366;container=0;" parent="1" vertex="1">
          <mxGeometry x="141.47" y="247" width="150" height="90" as="geometry" />
        </mxCell>
        <mxCell id="FHGa05HmV8W9KMMEZWDE-178" value="" style="html=1;whiteSpace=wrap;aspect=fixed;shape=isoRectangle;strokeWidth=1;fillColor=#E5FAE4;strokeColor=#82b366;container=0;" parent="1" vertex="1">
          <mxGeometry x="102" y="226" width="150" height="90" as="geometry" />
        </mxCell>
        <mxCell id="FHGa05HmV8W9KMMEZWDE-179" value="" style="html=1;whiteSpace=wrap;aspect=fixed;shape=isoRectangle;rotation=-240;strokeWidth=1;fillColor=#d5e8d4;strokeColor=#82b366;container=0;" parent="1" vertex="1">
          <mxGeometry x="140" y="292" width="150" height="90" as="geometry" />
        </mxCell>
        <mxCell id="FHGa05HmV8W9KMMEZWDE-180" value="" style="html=1;whiteSpace=wrap;aspect=fixed;shape=isoRectangle;rotation=60;flipV=1;direction=west;fillColor=#BBCCBA;strokeColor=#82b366;container=0;" parent="1" vertex="1">
          <mxGeometry x="64" y="292" width="150" height="90" as="geometry" />
        </mxCell>
        <mxCell id="FHGa05HmV8W9KMMEZWDE-182" value="" style="html=1;whiteSpace=wrap;aspect=fixed;shape=isoRectangle;strokeWidth=1;fillColor=#E5FAE4;strokeColor=#82b366;container=0;" parent="1" vertex="1">
          <mxGeometry x="255.94" y="226" width="150" height="90" as="geometry" />
        </mxCell>
        <mxCell id="FHGa05HmV8W9KMMEZWDE-183" value="" style="html=1;whiteSpace=wrap;aspect=fixed;shape=isoRectangle;rotation=-240;strokeWidth=1;fillColor=#d5e8d4;strokeColor=#82b366;container=0;" parent="1" vertex="1">
          <mxGeometry x="293.94" y="292" width="150" height="90" as="geometry" />
        </mxCell>
        <mxCell id="FHGa05HmV8W9KMMEZWDE-184" value="" style="html=1;whiteSpace=wrap;aspect=fixed;shape=isoRectangle;rotation=60;flipV=1;direction=west;fillColor=#BBCCBA;strokeColor=#82b366;container=0;" parent="1" vertex="1">
          <mxGeometry x="217.94" y="292" width="150" height="90" as="geometry" />
        </mxCell>
        <mxCell id="FHGa05HmV8W9KMMEZWDE-186" value="" style="html=1;whiteSpace=wrap;aspect=fixed;shape=isoRectangle;strokeWidth=1;fillColor=#E5FAE4;strokeColor=#82b366;container=0;" parent="1" vertex="1">
          <mxGeometry x="178.47" y="271" width="150" height="90" as="geometry" />
        </mxCell>
        <mxCell id="FHGa05HmV8W9KMMEZWDE-187" value="" style="html=1;whiteSpace=wrap;aspect=fixed;shape=isoRectangle;rotation=-240;strokeWidth=1;fillColor=#d5e8d4;strokeColor=#82b366;container=0;" parent="1" vertex="1">
          <mxGeometry x="216.47" y="337" width="150" height="90" as="geometry" />
        </mxCell>
        <mxCell id="FHGa05HmV8W9KMMEZWDE-188" value="" style="html=1;whiteSpace=wrap;aspect=fixed;shape=isoRectangle;rotation=60;flipV=1;direction=west;fillColor=#BBCCBA;strokeColor=#82b366;container=0;" parent="1" vertex="1">
          <mxGeometry x="140.47" y="337" width="150" height="90" as="geometry" />
        </mxCell>
        <mxCell id="FHGa05HmV8W9KMMEZWDE-190" value="" style="html=1;whiteSpace=wrap;aspect=fixed;shape=isoRectangle;strokeWidth=1;fillColor=#E5FAE4;strokeColor=#82b366;container=0;" parent="1" vertex="1">
          <mxGeometry x="332.88" y="271" width="150" height="90" as="geometry" />
        </mxCell>
        <mxCell id="FHGa05HmV8W9KMMEZWDE-191" value="" style="html=1;whiteSpace=wrap;aspect=fixed;shape=isoRectangle;rotation=-240;strokeWidth=1;fillColor=#d5e8d4;strokeColor=#82b366;container=0;" parent="1" vertex="1">
          <mxGeometry x="370.88" y="337" width="150" height="90" as="geometry" />
        </mxCell>
        <mxCell id="FHGa05HmV8W9KMMEZWDE-192" value="" style="html=1;whiteSpace=wrap;aspect=fixed;shape=isoRectangle;rotation=60;flipV=1;direction=west;fillColor=#BBCCBA;strokeColor=#82b366;container=0;" parent="1" vertex="1">
          <mxGeometry x="294.88" y="337" width="150" height="90" as="geometry" />
        </mxCell>
        <mxCell id="FHGa05HmV8W9KMMEZWDE-194" value="" style="html=1;whiteSpace=wrap;aspect=fixed;shape=isoRectangle;strokeWidth=1;fillColor=#E5FAE4;strokeColor=#82b366;container=0;" parent="1" vertex="1">
          <mxGeometry x="255.41" y="316" width="150" height="90" as="geometry" />
        </mxCell>
        <mxCell id="FHGa05HmV8W9KMMEZWDE-195" value="" style="html=1;whiteSpace=wrap;aspect=fixed;shape=isoRectangle;rotation=-240;strokeWidth=1;fillColor=#d5e8d4;strokeColor=#82b366;container=0;" parent="1" vertex="1">
          <mxGeometry x="293.40999999999997" y="382" width="150" height="90" as="geometry" />
        </mxCell>
        <mxCell id="FHGa05HmV8W9KMMEZWDE-196" value="" style="html=1;whiteSpace=wrap;aspect=fixed;shape=isoRectangle;rotation=60;flipV=1;direction=west;fillColor=#BBCCBA;strokeColor=#82b366;container=0;" parent="1" vertex="1">
          <mxGeometry x="217.41" y="382" width="150" height="90" as="geometry" />
        </mxCell>
        <mxCell id="FHGa05HmV8W9KMMEZWDE-198" value="" style="html=1;whiteSpace=wrap;aspect=fixed;shape=isoRectangle;strokeWidth=1;fillColor=#E5FAE4;strokeColor=#82b366;container=0;" parent="1" vertex="1">
          <mxGeometry x="409.34999999999997" y="316" width="150" height="90" as="geometry" />
        </mxCell>
        <mxCell id="FHGa05HmV8W9KMMEZWDE-199" value="" style="html=1;whiteSpace=wrap;aspect=fixed;shape=isoRectangle;rotation=-240;strokeWidth=1;fillColor=#d5e8d4;strokeColor=#82b366;container=0;" parent="1" vertex="1">
          <mxGeometry x="447.34999999999997" y="382" width="150" height="90" as="geometry" />
        </mxCell>
        <mxCell id="FHGa05HmV8W9KMMEZWDE-200" value="" style="html=1;whiteSpace=wrap;aspect=fixed;shape=isoRectangle;rotation=60;flipV=1;direction=west;fillColor=#BBCCBA;strokeColor=#82b366;container=0;" parent="1" vertex="1">
          <mxGeometry x="371.34999999999997" y="382" width="150" height="90" as="geometry" />
        </mxCell>
        <mxCell id="FHGa05HmV8W9KMMEZWDE-202" value="" style="html=1;whiteSpace=wrap;aspect=fixed;shape=isoRectangle;strokeWidth=1;fillColor=#E5FAE4;strokeColor=#82b366;container=0;" parent="1" vertex="1">
          <mxGeometry x="331.87999999999994" y="361" width="150" height="90" as="geometry" />
        </mxCell>
        <mxCell id="FHGa05HmV8W9KMMEZWDE-203" value="" style="html=1;whiteSpace=wrap;aspect=fixed;shape=isoRectangle;rotation=-240;strokeWidth=1;fillColor=#d5e8d4;strokeColor=#82b366;container=0;" parent="1" vertex="1">
          <mxGeometry x="369.87999999999994" y="427" width="150" height="90" as="geometry" />
        </mxCell>
        <mxCell id="FHGa05HmV8W9KMMEZWDE-204" value="" style="html=1;whiteSpace=wrap;aspect=fixed;shape=isoRectangle;rotation=60;flipV=1;direction=west;fillColor=#BBCCBA;strokeColor=#82b366;container=0;" parent="1" vertex="1">
          <mxGeometry x="293.87999999999994" y="427" width="150" height="90" as="geometry" />
        </mxCell>
        <mxCell id="FHGa05HmV8W9KMMEZWDE-206" value="" style="html=1;whiteSpace=wrap;aspect=fixed;shape=isoRectangle;strokeWidth=1;fillColor=#E5FAE4;strokeColor=#82b366;container=0;" parent="1" vertex="1">
          <mxGeometry x="486.29" y="361" width="150" height="90" as="geometry" />
        </mxCell>
        <mxCell id="FHGa05HmV8W9KMMEZWDE-207" value="" style="html=1;whiteSpace=wrap;aspect=fixed;shape=isoRectangle;rotation=-240;strokeWidth=1;fillColor=#EAFFE9;strokeColor=#82b366;container=0;" parent="1" vertex="1">
          <mxGeometry x="524.29" y="427" width="150" height="90" as="geometry" />
        </mxCell>
        <mxCell id="FHGa05HmV8W9KMMEZWDE-208" value="" style="html=1;whiteSpace=wrap;aspect=fixed;shape=isoRectangle;rotation=60;flipV=1;direction=west;fillColor=#BBCCBA;strokeColor=#82b366;container=0;" parent="1" vertex="1">
          <mxGeometry x="448.29" y="427" width="150" height="90" as="geometry" />
        </mxCell>
        <mxCell id="FHGa05HmV8W9KMMEZWDE-210" value="" style="html=1;whiteSpace=wrap;aspect=fixed;shape=isoRectangle;strokeWidth=1;fillColor=#E5FAE4;strokeColor=#82b366;container=0;" parent="1" vertex="1">
          <mxGeometry x="408.82" y="406" width="150" height="90" as="geometry" />
        </mxCell>
        <mxCell id="FHGa05HmV8W9KMMEZWDE-211" value="" style="html=1;whiteSpace=wrap;aspect=fixed;shape=isoRectangle;rotation=-240;strokeWidth=1;fillColor=#EAFFE9;strokeColor=#82b366;container=0;" parent="1" vertex="1">
          <mxGeometry x="446.82" y="472" width="150" height="90" as="geometry" />
        </mxCell>
        <mxCell id="FHGa05HmV8W9KMMEZWDE-212" value="" style="html=1;whiteSpace=wrap;aspect=fixed;shape=isoRectangle;rotation=60;flipV=1;direction=west;fillColor=#bbccbb;strokeColor=#d6b656;container=0;" parent="1" vertex="1">
          <mxGeometry x="370.82" y="472" width="150" height="90" as="geometry" />
        </mxCell>
        <mxCell id="FHGa05HmV8W9KMMEZWDE-214" value="" style="html=1;whiteSpace=wrap;aspect=fixed;shape=isoRectangle;strokeWidth=1;fillColor=#E5FAE4;strokeColor=#82b366;container=0;" parent="1" vertex="1">
          <mxGeometry x="179.47" y="92" width="150" height="90" as="geometry" />
        </mxCell>
        <mxCell id="FHGa05HmV8W9KMMEZWDE-215" value="" style="html=1;whiteSpace=wrap;aspect=fixed;shape=isoRectangle;rotation=-240;strokeWidth=1;fillColor=#d5e8d4;strokeColor=#82b366;container=0;" parent="1" vertex="1">
          <mxGeometry x="217.47" y="158" width="150" height="90" as="geometry" />
        </mxCell>
        <mxCell id="FHGa05HmV8W9KMMEZWDE-216" value="" style="html=1;whiteSpace=wrap;aspect=fixed;shape=isoRectangle;rotation=60;flipV=1;direction=west;fillColor=#BBCCBA;strokeColor=#82b366;container=0;" parent="1" vertex="1">
          <mxGeometry x="141.47" y="158" width="150" height="90" as="geometry" />
        </mxCell>
        <mxCell id="FHGa05HmV8W9KMMEZWDE-218" value="" style="html=1;whiteSpace=wrap;aspect=fixed;shape=isoRectangle;strokeWidth=1;fillColor=#E5FAE4;strokeColor=#82b366;container=0;" parent="1" vertex="1">
          <mxGeometry x="102" y="137" width="150" height="90" as="geometry" />
        </mxCell>
        <mxCell id="FHGa05HmV8W9KMMEZWDE-219" value="" style="html=1;whiteSpace=wrap;aspect=fixed;shape=isoRectangle;rotation=-240;strokeWidth=1;fillColor=#d5e8d4;strokeColor=#82b366;container=0;" parent="1" vertex="1">
          <mxGeometry x="140" y="203" width="150" height="90" as="geometry" />
        </mxCell>
        <mxCell id="FHGa05HmV8W9KMMEZWDE-220" value="" style="html=1;whiteSpace=wrap;aspect=fixed;shape=isoRectangle;rotation=60;flipV=1;direction=west;fillColor=#BBCCBA;strokeColor=#82b366;container=0;" parent="1" vertex="1">
          <mxGeometry x="64" y="203" width="150" height="90" as="geometry" />
        </mxCell>
        <mxCell id="FHGa05HmV8W9KMMEZWDE-222" value="" style="html=1;whiteSpace=wrap;aspect=fixed;shape=isoRectangle;strokeWidth=1;fillColor=#E5FAE4;strokeColor=#82b366;container=0;" parent="1" vertex="1">
          <mxGeometry x="255.94" y="137" width="150" height="90" as="geometry" />
        </mxCell>
        <mxCell id="FHGa05HmV8W9KMMEZWDE-223" value="" style="html=1;whiteSpace=wrap;aspect=fixed;shape=isoRectangle;rotation=-240;strokeWidth=1;fillColor=#d5e8d4;strokeColor=#82b366;container=0;" parent="1" vertex="1">
          <mxGeometry x="293.94" y="203" width="150" height="90" as="geometry" />
        </mxCell>
        <mxCell id="FHGa05HmV8W9KMMEZWDE-224" value="" style="html=1;whiteSpace=wrap;aspect=fixed;shape=isoRectangle;rotation=60;flipV=1;direction=west;fillColor=#BBCCBA;strokeColor=#82b366;container=0;" parent="1" vertex="1">
          <mxGeometry x="217.94" y="203" width="150" height="90" as="geometry" />
        </mxCell>
        <mxCell id="FHGa05HmV8W9KMMEZWDE-226" value="" style="html=1;whiteSpace=wrap;aspect=fixed;shape=isoRectangle;strokeWidth=1;fillColor=#E5FAE4;strokeColor=#82b366;container=0;" parent="1" vertex="1">
          <mxGeometry x="178.47" y="182" width="150" height="90" as="geometry" />
        </mxCell>
        <mxCell id="FHGa05HmV8W9KMMEZWDE-227" value="" style="html=1;whiteSpace=wrap;aspect=fixed;shape=isoRectangle;rotation=-240;strokeWidth=1;fillColor=#d5e8d4;strokeColor=#82b366;container=0;" parent="1" vertex="1">
          <mxGeometry x="216.47" y="248" width="150" height="90" as="geometry" />
        </mxCell>
        <mxCell id="FHGa05HmV8W9KMMEZWDE-228" value="" style="html=1;whiteSpace=wrap;aspect=fixed;shape=isoRectangle;rotation=60;flipV=1;direction=west;fillColor=#BBCCBA;strokeColor=#82b366;container=0;" parent="1" vertex="1">
          <mxGeometry x="140.47" y="248" width="150" height="90" as="geometry" />
        </mxCell>
        <mxCell id="FHGa05HmV8W9KMMEZWDE-230" value="" style="html=1;whiteSpace=wrap;aspect=fixed;shape=isoRectangle;strokeWidth=1;fillColor=#E5FAE4;strokeColor=#82b366;container=0;" parent="1" vertex="1">
          <mxGeometry x="332.88" y="182" width="150" height="90" as="geometry" />
        </mxCell>
        <mxCell id="FHGa05HmV8W9KMMEZWDE-231" value="" style="html=1;whiteSpace=wrap;aspect=fixed;shape=isoRectangle;rotation=-240;strokeWidth=1;fillColor=#d5e8d4;strokeColor=#82b366;container=0;" parent="1" vertex="1">
          <mxGeometry x="370.88" y="248" width="150" height="90" as="geometry" />
        </mxCell>
        <mxCell id="FHGa05HmV8W9KMMEZWDE-232" value="" style="html=1;whiteSpace=wrap;aspect=fixed;shape=isoRectangle;rotation=60;flipV=1;direction=west;fillColor=#BBCCBA;strokeColor=#82b366;container=0;" parent="1" vertex="1">
          <mxGeometry x="294.88" y="248" width="150" height="90" as="geometry" />
        </mxCell>
        <mxCell id="FHGa05HmV8W9KMMEZWDE-234" value="" style="html=1;whiteSpace=wrap;aspect=fixed;shape=isoRectangle;strokeWidth=1;fillColor=#E5FAE4;strokeColor=#82b366;container=0;" parent="1" vertex="1">
          <mxGeometry x="255.41" y="227" width="150" height="90" as="geometry" />
        </mxCell>
        <mxCell id="FHGa05HmV8W9KMMEZWDE-235" value="" style="html=1;whiteSpace=wrap;aspect=fixed;shape=isoRectangle;rotation=-240;strokeWidth=1;fillColor=#d5e8d4;strokeColor=#82b366;container=0;" parent="1" vertex="1">
          <mxGeometry x="293.40999999999997" y="293" width="150" height="90" as="geometry" />
        </mxCell>
        <mxCell id="FHGa05HmV8W9KMMEZWDE-236" value="" style="html=1;whiteSpace=wrap;aspect=fixed;shape=isoRectangle;rotation=60;flipV=1;direction=west;fillColor=#BBCCBA;strokeColor=#82b366;container=0;" parent="1" vertex="1">
          <mxGeometry x="217.41" y="293" width="150" height="90" as="geometry" />
        </mxCell>
        <mxCell id="FHGa05HmV8W9KMMEZWDE-238" value="" style="html=1;whiteSpace=wrap;aspect=fixed;shape=isoRectangle;strokeWidth=1;fillColor=#E5FAE4;strokeColor=#82b366;container=0;" parent="1" vertex="1">
          <mxGeometry x="409.34999999999997" y="227" width="150" height="90" as="geometry" />
        </mxCell>
        <mxCell id="FHGa05HmV8W9KMMEZWDE-239" value="" style="html=1;whiteSpace=wrap;aspect=fixed;shape=isoRectangle;rotation=-240;strokeWidth=1;fillColor=#d5e8d4;strokeColor=#82b366;container=0;" parent="1" vertex="1">
          <mxGeometry x="447.34999999999997" y="293" width="150" height="90" as="geometry" />
        </mxCell>
        <mxCell id="FHGa05HmV8W9KMMEZWDE-240" value="" style="html=1;whiteSpace=wrap;aspect=fixed;shape=isoRectangle;rotation=60;flipV=1;direction=west;fillColor=#BBCCBA;strokeColor=#82b366;container=0;" parent="1" vertex="1">
          <mxGeometry x="371.34999999999997" y="293" width="150" height="90" as="geometry" />
        </mxCell>
        <mxCell id="FHGa05HmV8W9KMMEZWDE-242" value="" style="html=1;whiteSpace=wrap;aspect=fixed;shape=isoRectangle;strokeWidth=1;fillColor=#E5FAE4;strokeColor=#82b366;container=0;" parent="1" vertex="1">
          <mxGeometry x="331.87999999999994" y="272" width="150" height="90" as="geometry" />
        </mxCell>
        <mxCell id="FHGa05HmV8W9KMMEZWDE-243" value="" style="html=1;whiteSpace=wrap;aspect=fixed;shape=isoRectangle;rotation=-240;strokeWidth=1;fillColor=#d5e8d4;strokeColor=#82b366;container=0;" parent="1" vertex="1">
          <mxGeometry x="369.87999999999994" y="338" width="150" height="90" as="geometry" />
        </mxCell>
        <mxCell id="FHGa05HmV8W9KMMEZWDE-244" value="" style="html=1;whiteSpace=wrap;aspect=fixed;shape=isoRectangle;rotation=60;flipV=1;direction=west;fillColor=#BBCCBA;strokeColor=#82b366;container=0;" parent="1" vertex="1">
          <mxGeometry x="293.87999999999994" y="338" width="150" height="90" as="geometry" />
        </mxCell>
        <mxCell id="FHGa05HmV8W9KMMEZWDE-246" value="" style="html=1;whiteSpace=wrap;aspect=fixed;shape=isoRectangle;strokeWidth=1;fillColor=#e5fae4;strokeColor=#82b366;container=0;" parent="1" vertex="1">
          <mxGeometry x="486.29" y="272" width="150" height="90" as="geometry" />
        </mxCell>
        <mxCell id="FHGa05HmV8W9KMMEZWDE-247" value="" style="html=1;whiteSpace=wrap;aspect=fixed;shape=isoRectangle;rotation=-240;strokeWidth=1;fillColor=#EAFFE9;strokeColor=#82b366;container=0;" parent="1" vertex="1">
          <mxGeometry x="524.29" y="338" width="150" height="90" as="geometry" />
        </mxCell>
        <mxCell id="FHGa05HmV8W9KMMEZWDE-248" value="" style="html=1;whiteSpace=wrap;aspect=fixed;shape=isoRectangle;rotation=60;flipV=1;direction=west;fillColor=#BBCCBA;strokeColor=#82b366;container=0;" parent="1" vertex="1">
          <mxGeometry x="448.29" y="338" width="150" height="90" as="geometry" />
        </mxCell>
        <mxCell id="FHGa05HmV8W9KMMEZWDE-250" value="" style="html=1;whiteSpace=wrap;aspect=fixed;shape=isoRectangle;strokeWidth=1;fillColor=#e5fae4;strokeColor=#82b366;container=0;" parent="1" vertex="1">
          <mxGeometry x="408.82" y="317" width="150" height="90" as="geometry" />
        </mxCell>
        <mxCell id="FHGa05HmV8W9KMMEZWDE-251" value="" style="html=1;whiteSpace=wrap;aspect=fixed;shape=isoRectangle;rotation=-240;strokeWidth=1;fillColor=#EAFFE9;strokeColor=#82b366;container=0;" parent="1" vertex="1">
          <mxGeometry x="446.82" y="383" width="150" height="90" as="geometry" />
        </mxCell>
        <mxCell id="FHGa05HmV8W9KMMEZWDE-252" value="" style="html=1;whiteSpace=wrap;aspect=fixed;shape=isoRectangle;rotation=60;flipV=1;direction=west;fillColor=#bbccbb;strokeColor=#82b366;container=0;" parent="1" vertex="1">
          <mxGeometry x="370.82" y="383" width="150" height="90" as="geometry" />
        </mxCell>
        <mxCell id="vK0zOUk7TIPSTApoR2ex-3" value="" style="html=1;whiteSpace=wrap;aspect=fixed;shape=isoRectangle;strokeWidth=1;fillColor=#E5FAE4;strokeColor=#82b366;container=0;" vertex="1" parent="1">
          <mxGeometry x="102.47000000000003" y="315.5" width="150" height="90" as="geometry" />
        </mxCell>
        <mxCell id="vK0zOUk7TIPSTApoR2ex-4" value="" style="html=1;whiteSpace=wrap;aspect=fixed;shape=isoRectangle;rotation=-240;strokeWidth=1;fillColor=#d5e8d4;strokeColor=#82b366;container=0;" vertex="1" parent="1">
          <mxGeometry x="140.47000000000003" y="381.5" width="150" height="90" as="geometry" />
        </mxCell>
        <mxCell id="vK0zOUk7TIPSTApoR2ex-5" value="" style="html=1;whiteSpace=wrap;aspect=fixed;shape=isoRectangle;rotation=60;flipV=1;direction=west;fillColor=#BBCCBA;strokeColor=#82b366;container=0;" vertex="1" parent="1">
          <mxGeometry x="64.47" y="381.5" width="150" height="90" as="geometry" />
        </mxCell>
        <mxCell id="vK0zOUk7TIPSTApoR2ex-6" value="" style="html=1;whiteSpace=wrap;aspect=fixed;shape=isoRectangle;strokeWidth=1;fillColor=#E5FAE4;strokeColor=#82b366;container=0;" vertex="1" parent="1">
          <mxGeometry x="25" y="360.5" width="150" height="90" as="geometry" />
        </mxCell>
        <mxCell id="vK0zOUk7TIPSTApoR2ex-7" value="" style="html=1;whiteSpace=wrap;aspect=fixed;shape=isoRectangle;rotation=-240;strokeWidth=1;fillColor=#d5e8d4;strokeColor=#82b366;container=0;" vertex="1" parent="1">
          <mxGeometry x="63" y="426.5" width="150" height="90" as="geometry" />
        </mxCell>
        <mxCell id="vK0zOUk7TIPSTApoR2ex-8" value="" style="html=1;whiteSpace=wrap;aspect=fixed;shape=isoRectangle;rotation=60;flipV=1;direction=west;fillColor=#BBCCBA;strokeColor=#82b366;container=0;" vertex="1" parent="1">
          <mxGeometry x="-13" y="426.5" width="150" height="90" as="geometry" />
        </mxCell>
        <mxCell id="vK0zOUk7TIPSTApoR2ex-9" value="" style="html=1;whiteSpace=wrap;aspect=fixed;shape=isoRectangle;strokeWidth=1;fillColor=#E5FAE4;strokeColor=#82b366;container=0;" vertex="1" parent="1">
          <mxGeometry x="178.94" y="360.5" width="150" height="90" as="geometry" />
        </mxCell>
        <mxCell id="vK0zOUk7TIPSTApoR2ex-10" value="" style="html=1;whiteSpace=wrap;aspect=fixed;shape=isoRectangle;rotation=-240;strokeWidth=1;fillColor=#d5e8d4;strokeColor=#82b366;container=0;" vertex="1" parent="1">
          <mxGeometry x="216.94" y="426.5" width="150" height="90" as="geometry" />
        </mxCell>
        <mxCell id="vK0zOUk7TIPSTApoR2ex-11" value="" style="html=1;whiteSpace=wrap;aspect=fixed;shape=isoRectangle;rotation=60;flipV=1;direction=west;fillColor=#BBCCBA;strokeColor=#82b366;container=0;" vertex="1" parent="1">
          <mxGeometry x="140.94" y="426.5" width="150" height="90" as="geometry" />
        </mxCell>
        <mxCell id="vK0zOUk7TIPSTApoR2ex-12" value="" style="html=1;whiteSpace=wrap;aspect=fixed;shape=isoRectangle;strokeWidth=1;fillColor=#E5FAE4;strokeColor=#82b366;container=0;" vertex="1" parent="1">
          <mxGeometry x="101.47000000000003" y="405.5" width="150" height="90" as="geometry" />
        </mxCell>
        <mxCell id="vK0zOUk7TIPSTApoR2ex-13" value="" style="html=1;whiteSpace=wrap;aspect=fixed;shape=isoRectangle;rotation=-240;strokeWidth=1;fillColor=#d5e8d4;strokeColor=#82b366;container=0;" vertex="1" parent="1">
          <mxGeometry x="139.47000000000003" y="471.5" width="150" height="90" as="geometry" />
        </mxCell>
        <mxCell id="vK0zOUk7TIPSTApoR2ex-14" value="" style="html=1;whiteSpace=wrap;aspect=fixed;shape=isoRectangle;rotation=60;flipV=1;direction=west;fillColor=#BBCCBA;strokeColor=#82b366;container=0;" vertex="1" parent="1">
          <mxGeometry x="63.47" y="471.5" width="150" height="90" as="geometry" />
        </mxCell>
        <mxCell id="vK0zOUk7TIPSTApoR2ex-15" value="&lt;font style=&quot;font-size: 20px;&quot;&gt;Sequence / Time&lt;/font&gt;" style="shape=curlyBracket;whiteSpace=wrap;html=1;rounded=1;labelPosition=left;verticalLabelPosition=middle;align=right;verticalAlign=middle;rotation=-60;strokeWidth=3;container=0;" vertex="1" parent="1">
          <mxGeometry x="191.65885682970026" y="410.5" width="20" height="440" as="geometry" />
        </mxCell>
        <mxCell id="vK0zOUk7TIPSTApoR2ex-16" value="" style="html=1;whiteSpace=wrap;aspect=fixed;shape=isoRectangle;strokeWidth=1;fillColor=#E5FAE4;strokeColor=#82b366;container=0;" vertex="1" parent="1">
          <mxGeometry x="255.88" y="405.5" width="150" height="90" as="geometry" />
        </mxCell>
        <mxCell id="vK0zOUk7TIPSTApoR2ex-17" value="" style="html=1;whiteSpace=wrap;aspect=fixed;shape=isoRectangle;rotation=-240;strokeWidth=1;fillColor=#d5e8d4;strokeColor=#82b366;container=0;" vertex="1" parent="1">
          <mxGeometry x="293.88" y="471.5" width="150" height="90" as="geometry" />
        </mxCell>
        <mxCell id="vK0zOUk7TIPSTApoR2ex-18" value="" style="html=1;whiteSpace=wrap;aspect=fixed;shape=isoRectangle;rotation=60;flipV=1;direction=west;fillColor=#BBCCBA;strokeColor=#82b366;container=0;" vertex="1" parent="1">
          <mxGeometry x="217.88" y="471.5" width="150" height="90" as="geometry" />
        </mxCell>
        <mxCell id="vK0zOUk7TIPSTApoR2ex-19" value="" style="html=1;whiteSpace=wrap;aspect=fixed;shape=isoRectangle;strokeWidth=1;fillColor=#E5FAE4;strokeColor=#82b366;container=0;" vertex="1" parent="1">
          <mxGeometry x="178.40999999999997" y="450.5" width="150" height="90" as="geometry" />
        </mxCell>
        <mxCell id="vK0zOUk7TIPSTApoR2ex-20" value="" style="html=1;whiteSpace=wrap;aspect=fixed;shape=isoRectangle;rotation=-240;strokeWidth=1;fillColor=#d5e8d4;strokeColor=#82b366;container=0;" vertex="1" parent="1">
          <mxGeometry x="216.40999999999997" y="516.5" width="150" height="90" as="geometry" />
        </mxCell>
        <mxCell id="vK0zOUk7TIPSTApoR2ex-21" value="" style="html=1;whiteSpace=wrap;aspect=fixed;shape=isoRectangle;rotation=60;flipV=1;direction=west;fillColor=#BBCCBA;strokeColor=#82b366;container=0;" vertex="1" parent="1">
          <mxGeometry x="140.40999999999997" y="516.5" width="150" height="90" as="geometry" />
        </mxCell>
        <mxCell id="vK0zOUk7TIPSTApoR2ex-22" value="" style="html=1;whiteSpace=wrap;aspect=fixed;shape=isoRectangle;strokeWidth=1;fillColor=#E5FAE4;strokeColor=#82b366;container=0;" vertex="1" parent="1">
          <mxGeometry x="332.3499999999999" y="450.5" width="150" height="90" as="geometry" />
        </mxCell>
        <mxCell id="vK0zOUk7TIPSTApoR2ex-23" value="" style="html=1;whiteSpace=wrap;aspect=fixed;shape=isoRectangle;rotation=-240;strokeWidth=1;fillColor=#d5e8d4;strokeColor=#82b366;container=0;" vertex="1" parent="1">
          <mxGeometry x="370.3499999999999" y="516.5" width="150" height="90" as="geometry" />
        </mxCell>
        <mxCell id="vK0zOUk7TIPSTApoR2ex-24" value="" style="html=1;whiteSpace=wrap;aspect=fixed;shape=isoRectangle;rotation=60;flipV=1;direction=west;fillColor=#BBCCBA;strokeColor=#82b366;container=0;" vertex="1" parent="1">
          <mxGeometry x="294.34999999999997" y="516.5" width="150" height="90" as="geometry" />
        </mxCell>
        <mxCell id="vK0zOUk7TIPSTApoR2ex-25" value="" style="html=1;whiteSpace=wrap;aspect=fixed;shape=isoRectangle;strokeWidth=1;fillColor=#E5FAE4;strokeColor=#82b366;container=0;" vertex="1" parent="1">
          <mxGeometry x="254.87999999999994" y="495.5" width="150" height="90" as="geometry" />
        </mxCell>
        <mxCell id="vK0zOUk7TIPSTApoR2ex-26" value="" style="html=1;whiteSpace=wrap;aspect=fixed;shape=isoRectangle;rotation=-240;strokeWidth=1;fillColor=#d5e8d4;strokeColor=#82b366;container=0;" vertex="1" parent="1">
          <mxGeometry x="292.87999999999994" y="561.5" width="150" height="90" as="geometry" />
        </mxCell>
        <mxCell id="vK0zOUk7TIPSTApoR2ex-27" value="" style="html=1;whiteSpace=wrap;aspect=fixed;shape=isoRectangle;rotation=60;flipV=1;direction=west;fillColor=#BBCCBA;strokeColor=#82b366;container=0;" vertex="1" parent="1">
          <mxGeometry x="216.87999999999994" y="561.5" width="150" height="90" as="geometry" />
        </mxCell>
        <mxCell id="vK0zOUk7TIPSTApoR2ex-28" value="" style="html=1;whiteSpace=wrap;aspect=fixed;shape=isoRectangle;strokeWidth=1;fillColor=#E5FAE4;strokeColor=#82b366;container=0;" vertex="1" parent="1">
          <mxGeometry x="409.28999999999996" y="495.5" width="150" height="90" as="geometry" />
        </mxCell>
        <mxCell id="vK0zOUk7TIPSTApoR2ex-29" value="" style="html=1;whiteSpace=wrap;aspect=fixed;shape=isoRectangle;rotation=-240;strokeWidth=1;fillColor=#EAFFE9;strokeColor=#82b366;container=0;" vertex="1" parent="1">
          <mxGeometry x="447.28999999999996" y="561.5" width="150" height="90" as="geometry" />
        </mxCell>
        <mxCell id="vK0zOUk7TIPSTApoR2ex-30" value="" style="html=1;whiteSpace=wrap;aspect=fixed;shape=isoRectangle;rotation=60;flipV=1;direction=west;fillColor=#BBCCBA;strokeColor=#82b366;container=0;" vertex="1" parent="1">
          <mxGeometry x="371.28999999999996" y="561.5" width="150" height="90" as="geometry" />
        </mxCell>
        <mxCell id="vK0zOUk7TIPSTApoR2ex-31" value="" style="html=1;whiteSpace=wrap;aspect=fixed;shape=isoRectangle;strokeWidth=1;fillColor=#E5FAE4;strokeColor=#82b366;container=0;" vertex="1" parent="1">
          <mxGeometry x="331.81999999999994" y="540.5" width="150" height="90" as="geometry" />
        </mxCell>
        <mxCell id="vK0zOUk7TIPSTApoR2ex-32" value="" style="html=1;whiteSpace=wrap;aspect=fixed;shape=isoRectangle;rotation=-240;strokeWidth=1;fillColor=#EAFFE9;strokeColor=#82b366;container=0;" vertex="1" parent="1">
          <mxGeometry x="369.81999999999994" y="606.5" width="150" height="90" as="geometry" />
        </mxCell>
        <mxCell id="vK0zOUk7TIPSTApoR2ex-33" value="" style="html=1;whiteSpace=wrap;aspect=fixed;shape=isoRectangle;rotation=60;flipV=1;direction=west;fillColor=#bbccbb;strokeColor=#82b366;container=0;" vertex="1" parent="1">
          <mxGeometry x="293.82" y="606.5" width="150" height="90" as="geometry" />
        </mxCell>
        <mxCell id="vK0zOUk7TIPSTApoR2ex-34" value="&lt;font style=&quot;&quot;&gt;&lt;font style=&quot;font-size: 20px;&quot;&gt;Channels&lt;/font&gt;&lt;br&gt;&lt;/font&gt;" style="shape=curlyBracket;whiteSpace=wrap;html=1;rounded=1;flipH=1;labelPosition=right;verticalLabelPosition=middle;align=left;verticalAlign=middle;rotation=60;strokeWidth=3;container=0;" vertex="1" parent="1">
          <mxGeometry x="526.45" y="533.56" width="20" height="269.25" as="geometry" />
        </mxCell>
        <mxCell id="vK0zOUk7TIPSTApoR2ex-35" value="" style="html=1;whiteSpace=wrap;aspect=fixed;shape=isoRectangle;strokeWidth=1;fillColor=#E5FAE4;strokeColor=#82b366;container=0;" vertex="1" parent="1">
          <mxGeometry x="102.47000000000003" y="226.5" width="150" height="90" as="geometry" />
        </mxCell>
        <mxCell id="vK0zOUk7TIPSTApoR2ex-36" value="" style="html=1;whiteSpace=wrap;aspect=fixed;shape=isoRectangle;rotation=-240;strokeWidth=1;fillColor=#d5e8d4;strokeColor=#82b366;container=0;" vertex="1" parent="1">
          <mxGeometry x="140.47000000000003" y="292.5" width="150" height="90" as="geometry" />
        </mxCell>
        <mxCell id="vK0zOUk7TIPSTApoR2ex-37" value="" style="html=1;whiteSpace=wrap;aspect=fixed;shape=isoRectangle;rotation=60;flipV=1;direction=west;fillColor=#BBCCBA;strokeColor=#82b366;container=0;" vertex="1" parent="1">
          <mxGeometry x="64.47" y="292.5" width="150" height="90" as="geometry" />
        </mxCell>
        <mxCell id="vK0zOUk7TIPSTApoR2ex-38" value="" style="html=1;whiteSpace=wrap;aspect=fixed;shape=isoRectangle;strokeWidth=1;fillColor=#E5FAE4;strokeColor=#82b366;container=0;" vertex="1" parent="1">
          <mxGeometry x="25" y="271.5" width="150" height="90" as="geometry" />
        </mxCell>
        <mxCell id="vK0zOUk7TIPSTApoR2ex-39" value="" style="html=1;whiteSpace=wrap;aspect=fixed;shape=isoRectangle;rotation=-240;strokeWidth=1;fillColor=#d5e8d4;strokeColor=#82b366;container=0;" vertex="1" parent="1">
          <mxGeometry x="63" y="337.5" width="150" height="90" as="geometry" />
        </mxCell>
        <mxCell id="vK0zOUk7TIPSTApoR2ex-40" value="" style="html=1;whiteSpace=wrap;aspect=fixed;shape=isoRectangle;rotation=60;flipV=1;direction=west;fillColor=#BBCCBA;strokeColor=#82b366;container=0;" vertex="1" parent="1">
          <mxGeometry x="-13" y="337.5" width="150" height="90" as="geometry" />
        </mxCell>
        <mxCell id="vK0zOUk7TIPSTApoR2ex-41" value="" style="html=1;whiteSpace=wrap;aspect=fixed;shape=isoRectangle;strokeWidth=1;fillColor=#E5FAE4;strokeColor=#82b366;container=0;" vertex="1" parent="1">
          <mxGeometry x="178.94" y="271.5" width="150" height="90" as="geometry" />
        </mxCell>
        <mxCell id="vK0zOUk7TIPSTApoR2ex-42" value="" style="html=1;whiteSpace=wrap;aspect=fixed;shape=isoRectangle;rotation=-240;strokeWidth=1;fillColor=#d5e8d4;strokeColor=#82b366;container=0;" vertex="1" parent="1">
          <mxGeometry x="216.94" y="337.5" width="150" height="90" as="geometry" />
        </mxCell>
        <mxCell id="vK0zOUk7TIPSTApoR2ex-43" value="" style="html=1;whiteSpace=wrap;aspect=fixed;shape=isoRectangle;rotation=60;flipV=1;direction=west;fillColor=#BBCCBA;strokeColor=#82b366;container=0;" vertex="1" parent="1">
          <mxGeometry x="140.94" y="337.5" width="150" height="90" as="geometry" />
        </mxCell>
        <mxCell id="vK0zOUk7TIPSTApoR2ex-44" value="" style="html=1;whiteSpace=wrap;aspect=fixed;shape=isoRectangle;strokeWidth=1;fillColor=#E5FAE4;strokeColor=#82b366;container=0;" vertex="1" parent="1">
          <mxGeometry x="101.47000000000003" y="316.5" width="150" height="90" as="geometry" />
        </mxCell>
        <mxCell id="vK0zOUk7TIPSTApoR2ex-45" value="" style="html=1;whiteSpace=wrap;aspect=fixed;shape=isoRectangle;rotation=-240;strokeWidth=1;fillColor=#d5e8d4;strokeColor=#82b366;container=0;" vertex="1" parent="1">
          <mxGeometry x="139.47000000000003" y="382.5" width="150" height="90" as="geometry" />
        </mxCell>
        <mxCell id="vK0zOUk7TIPSTApoR2ex-46" value="" style="html=1;whiteSpace=wrap;aspect=fixed;shape=isoRectangle;rotation=60;flipV=1;direction=west;fillColor=#BBCCBA;strokeColor=#82b366;container=0;" vertex="1" parent="1">
          <mxGeometry x="63.47" y="382.5" width="150" height="90" as="geometry" />
        </mxCell>
        <mxCell id="vK0zOUk7TIPSTApoR2ex-47" value="" style="html=1;whiteSpace=wrap;aspect=fixed;shape=isoRectangle;strokeWidth=1;fillColor=#E5FAE4;strokeColor=#82b366;container=0;" vertex="1" parent="1">
          <mxGeometry x="255.88" y="316.5" width="150" height="90" as="geometry" />
        </mxCell>
        <mxCell id="vK0zOUk7TIPSTApoR2ex-48" value="" style="html=1;whiteSpace=wrap;aspect=fixed;shape=isoRectangle;rotation=-240;strokeWidth=1;fillColor=#d5e8d4;strokeColor=#82b366;container=0;" vertex="1" parent="1">
          <mxGeometry x="293.88" y="382.5" width="150" height="90" as="geometry" />
        </mxCell>
        <mxCell id="vK0zOUk7TIPSTApoR2ex-49" value="" style="html=1;whiteSpace=wrap;aspect=fixed;shape=isoRectangle;rotation=60;flipV=1;direction=west;fillColor=#BBCCBA;strokeColor=#82b366;container=0;" vertex="1" parent="1">
          <mxGeometry x="217.88" y="382.5" width="150" height="90" as="geometry" />
        </mxCell>
        <mxCell id="vK0zOUk7TIPSTApoR2ex-50" value="" style="html=1;whiteSpace=wrap;aspect=fixed;shape=isoRectangle;strokeWidth=1;fillColor=#E5FAE4;strokeColor=#82b366;container=0;" vertex="1" parent="1">
          <mxGeometry x="178.40999999999997" y="361.5" width="150" height="90" as="geometry" />
        </mxCell>
        <mxCell id="vK0zOUk7TIPSTApoR2ex-51" value="" style="html=1;whiteSpace=wrap;aspect=fixed;shape=isoRectangle;rotation=-240;strokeWidth=1;fillColor=#d5e8d4;strokeColor=#82b366;container=0;" vertex="1" parent="1">
          <mxGeometry x="216.40999999999997" y="427.5" width="150" height="90" as="geometry" />
        </mxCell>
        <mxCell id="vK0zOUk7TIPSTApoR2ex-52" value="" style="html=1;whiteSpace=wrap;aspect=fixed;shape=isoRectangle;rotation=60;flipV=1;direction=west;fillColor=#BBCCBA;strokeColor=#82b366;container=0;" vertex="1" parent="1">
          <mxGeometry x="140.40999999999997" y="427.5" width="150" height="90" as="geometry" />
        </mxCell>
        <mxCell id="vK0zOUk7TIPSTApoR2ex-53" value="" style="html=1;whiteSpace=wrap;aspect=fixed;shape=isoRectangle;strokeWidth=1;fillColor=#E5FAE4;strokeColor=#82b366;container=0;" vertex="1" parent="1">
          <mxGeometry x="332.3499999999999" y="361.5" width="150" height="90" as="geometry" />
        </mxCell>
        <mxCell id="vK0zOUk7TIPSTApoR2ex-54" value="" style="html=1;whiteSpace=wrap;aspect=fixed;shape=isoRectangle;rotation=-240;strokeWidth=1;fillColor=#d5e8d4;strokeColor=#82b366;container=0;" vertex="1" parent="1">
          <mxGeometry x="370.3499999999999" y="427.5" width="150" height="90" as="geometry" />
        </mxCell>
        <mxCell id="vK0zOUk7TIPSTApoR2ex-55" value="" style="html=1;whiteSpace=wrap;aspect=fixed;shape=isoRectangle;rotation=60;flipV=1;direction=west;fillColor=#BBCCBA;strokeColor=#82b366;container=0;" vertex="1" parent="1">
          <mxGeometry x="294.34999999999997" y="427.5" width="150" height="90" as="geometry" />
        </mxCell>
        <mxCell id="vK0zOUk7TIPSTApoR2ex-56" value="" style="html=1;whiteSpace=wrap;aspect=fixed;shape=isoRectangle;strokeWidth=1;fillColor=#E5FAE4;strokeColor=#82b366;container=0;" vertex="1" parent="1">
          <mxGeometry x="254.87999999999994" y="406.5" width="150" height="90" as="geometry" />
        </mxCell>
        <mxCell id="vK0zOUk7TIPSTApoR2ex-57" value="" style="html=1;whiteSpace=wrap;aspect=fixed;shape=isoRectangle;rotation=-240;strokeWidth=1;fillColor=#d5e8d4;strokeColor=#82b366;container=0;" vertex="1" parent="1">
          <mxGeometry x="292.87999999999994" y="472.5" width="150" height="90" as="geometry" />
        </mxCell>
        <mxCell id="vK0zOUk7TIPSTApoR2ex-58" value="" style="html=1;whiteSpace=wrap;aspect=fixed;shape=isoRectangle;rotation=60;flipV=1;direction=west;fillColor=#BBCCBA;strokeColor=#82b366;container=0;" vertex="1" parent="1">
          <mxGeometry x="216.87999999999994" y="472.5" width="150" height="90" as="geometry" />
        </mxCell>
        <mxCell id="vK0zOUk7TIPSTApoR2ex-59" value="" style="html=1;whiteSpace=wrap;aspect=fixed;shape=isoRectangle;strokeWidth=1;fillColor=#E5FAE4;strokeColor=#82b366;container=0;" vertex="1" parent="1">
          <mxGeometry x="409.28999999999996" y="406.5" width="150" height="90" as="geometry" />
        </mxCell>
        <mxCell id="vK0zOUk7TIPSTApoR2ex-60" value="" style="html=1;whiteSpace=wrap;aspect=fixed;shape=isoRectangle;rotation=-240;strokeWidth=1;fillColor=#EAFFE9;strokeColor=#82b366;container=0;" vertex="1" parent="1">
          <mxGeometry x="447.28999999999996" y="472.5" width="150" height="90" as="geometry" />
        </mxCell>
        <mxCell id="vK0zOUk7TIPSTApoR2ex-61" value="" style="html=1;whiteSpace=wrap;aspect=fixed;shape=isoRectangle;rotation=60;flipV=1;direction=west;fillColor=#BBCCBA;strokeColor=#82b366;container=0;" vertex="1" parent="1">
          <mxGeometry x="371.28999999999996" y="472.5" width="150" height="90" as="geometry" />
        </mxCell>
        <mxCell id="vK0zOUk7TIPSTApoR2ex-62" value="" style="html=1;whiteSpace=wrap;aspect=fixed;shape=isoRectangle;strokeWidth=1;fillColor=#E5FAE4;strokeColor=#82b366;container=0;" vertex="1" parent="1">
          <mxGeometry x="331.81999999999994" y="451.5" width="150" height="90" as="geometry" />
        </mxCell>
        <mxCell id="vK0zOUk7TIPSTApoR2ex-63" value="" style="html=1;whiteSpace=wrap;aspect=fixed;shape=isoRectangle;rotation=-240;strokeWidth=1;fillColor=#EAFFE9;strokeColor=#82b366;container=0;" vertex="1" parent="1">
          <mxGeometry x="369.81999999999994" y="517.5" width="150" height="90" as="geometry" />
        </mxCell>
        <mxCell id="vK0zOUk7TIPSTApoR2ex-64" value="" style="html=1;whiteSpace=wrap;aspect=fixed;shape=isoRectangle;rotation=60;flipV=1;direction=west;fillColor=#bbccbb;strokeColor=#82b366;container=0;" vertex="1" parent="1">
          <mxGeometry x="293.82" y="517.5" width="150" height="90" as="geometry" />
        </mxCell>
        <mxCell id="vK0zOUk7TIPSTApoR2ex-65" value="" style="html=1;whiteSpace=wrap;aspect=fixed;shape=isoRectangle;strokeWidth=1;fillColor=#E5FAE4;strokeColor=#82b366;container=0;" vertex="1" parent="1">
          <mxGeometry x="102.47000000000003" y="137.5" width="150" height="90" as="geometry" />
        </mxCell>
        <mxCell id="vK0zOUk7TIPSTApoR2ex-66" value="" style="html=1;whiteSpace=wrap;aspect=fixed;shape=isoRectangle;rotation=-240;strokeWidth=1;fillColor=#d5e8d4;strokeColor=#82b366;container=0;" vertex="1" parent="1">
          <mxGeometry x="140.47000000000003" y="203.5" width="150" height="90" as="geometry" />
        </mxCell>
        <mxCell id="vK0zOUk7TIPSTApoR2ex-67" value="" style="html=1;whiteSpace=wrap;aspect=fixed;shape=isoRectangle;rotation=60;flipV=1;direction=west;fillColor=#BBCCBA;strokeColor=#82b366;container=0;" vertex="1" parent="1">
          <mxGeometry x="64.47" y="203.5" width="150" height="90" as="geometry" />
        </mxCell>
        <mxCell id="vK0zOUk7TIPSTApoR2ex-68" value="" style="html=1;whiteSpace=wrap;aspect=fixed;shape=isoRectangle;strokeWidth=1;fillColor=#E5FAE4;strokeColor=#82b366;container=0;" vertex="1" parent="1">
          <mxGeometry x="25" y="182.5" width="150" height="90" as="geometry" />
        </mxCell>
        <mxCell id="vK0zOUk7TIPSTApoR2ex-69" value="" style="html=1;whiteSpace=wrap;aspect=fixed;shape=isoRectangle;rotation=-240;strokeWidth=1;fillColor=#d5e8d4;strokeColor=#82b366;container=0;" vertex="1" parent="1">
          <mxGeometry x="63" y="248.5" width="150" height="90" as="geometry" />
        </mxCell>
        <mxCell id="vK0zOUk7TIPSTApoR2ex-70" value="" style="html=1;whiteSpace=wrap;aspect=fixed;shape=isoRectangle;rotation=60;flipV=1;direction=west;fillColor=#BBCCBA;strokeColor=#82b366;container=0;" vertex="1" parent="1">
          <mxGeometry x="-13" y="248.5" width="150" height="90" as="geometry" />
        </mxCell>
        <mxCell id="vK0zOUk7TIPSTApoR2ex-71" value="&lt;font style=&quot;font-size: 20px;&quot;&gt;Batch&amp;nbsp;&lt;/font&gt;" style="shape=curlyBracket;whiteSpace=wrap;html=1;rounded=1;labelPosition=left;verticalLabelPosition=middle;align=right;verticalAlign=middle;strokeWidth=3;container=0;" vertex="1" parent="1">
          <mxGeometry x="-13" y="140" width="20" height="352.5" as="geometry" />
        </mxCell>
        <mxCell id="vK0zOUk7TIPSTApoR2ex-72" value="" style="html=1;whiteSpace=wrap;aspect=fixed;shape=isoRectangle;strokeWidth=1;fillColor=#E5FAE4;strokeColor=#82b366;container=0;" vertex="1" parent="1">
          <mxGeometry x="178.94" y="182.5" width="150" height="90" as="geometry" />
        </mxCell>
        <mxCell id="vK0zOUk7TIPSTApoR2ex-73" value="" style="html=1;whiteSpace=wrap;aspect=fixed;shape=isoRectangle;rotation=-240;strokeWidth=1;fillColor=#d5e8d4;strokeColor=#82b366;container=0;" vertex="1" parent="1">
          <mxGeometry x="216.94" y="248.5" width="150" height="90" as="geometry" />
        </mxCell>
        <mxCell id="vK0zOUk7TIPSTApoR2ex-74" value="" style="html=1;whiteSpace=wrap;aspect=fixed;shape=isoRectangle;rotation=60;flipV=1;direction=west;fillColor=#BBCCBA;strokeColor=#82b366;container=0;" vertex="1" parent="1">
          <mxGeometry x="140.94" y="248.5" width="150" height="90" as="geometry" />
        </mxCell>
        <mxCell id="vK0zOUk7TIPSTApoR2ex-75" value="" style="html=1;whiteSpace=wrap;aspect=fixed;shape=isoRectangle;strokeWidth=1;fillColor=#E5FAE4;strokeColor=#82b366;container=0;" vertex="1" parent="1">
          <mxGeometry x="101.47000000000003" y="227.5" width="150" height="90" as="geometry" />
        </mxCell>
        <mxCell id="vK0zOUk7TIPSTApoR2ex-76" value="" style="html=1;whiteSpace=wrap;aspect=fixed;shape=isoRectangle;rotation=-240;strokeWidth=1;fillColor=#d5e8d4;strokeColor=#82b366;container=0;" vertex="1" parent="1">
          <mxGeometry x="139.47000000000003" y="293.5" width="150" height="90" as="geometry" />
        </mxCell>
        <mxCell id="vK0zOUk7TIPSTApoR2ex-77" value="" style="html=1;whiteSpace=wrap;aspect=fixed;shape=isoRectangle;rotation=60;flipV=1;direction=west;fillColor=#BBCCBA;strokeColor=#82b366;container=0;" vertex="1" parent="1">
          <mxGeometry x="63.47" y="293.5" width="150" height="90" as="geometry" />
        </mxCell>
        <mxCell id="vK0zOUk7TIPSTApoR2ex-78" value="" style="html=1;whiteSpace=wrap;aspect=fixed;shape=isoRectangle;strokeWidth=1;fillColor=#E5FAE4;strokeColor=#82b366;container=0;" vertex="1" parent="1">
          <mxGeometry x="255.88" y="227.5" width="150" height="90" as="geometry" />
        </mxCell>
        <mxCell id="vK0zOUk7TIPSTApoR2ex-79" value="" style="html=1;whiteSpace=wrap;aspect=fixed;shape=isoRectangle;rotation=-240;strokeWidth=1;fillColor=#d5e8d4;strokeColor=#82b366;container=0;" vertex="1" parent="1">
          <mxGeometry x="293.88" y="293.5" width="150" height="90" as="geometry" />
        </mxCell>
        <mxCell id="vK0zOUk7TIPSTApoR2ex-80" value="" style="html=1;whiteSpace=wrap;aspect=fixed;shape=isoRectangle;rotation=60;flipV=1;direction=west;fillColor=#BBCCBA;strokeColor=#82b366;container=0;" vertex="1" parent="1">
          <mxGeometry x="217.88" y="293.5" width="150" height="90" as="geometry" />
        </mxCell>
        <mxCell id="vK0zOUk7TIPSTApoR2ex-81" value="" style="html=1;whiteSpace=wrap;aspect=fixed;shape=isoRectangle;strokeWidth=1;fillColor=#E5FAE4;strokeColor=#82b366;container=0;" vertex="1" parent="1">
          <mxGeometry x="178.40999999999997" y="272.5" width="150" height="90" as="geometry" />
        </mxCell>
        <mxCell id="vK0zOUk7TIPSTApoR2ex-82" value="" style="html=1;whiteSpace=wrap;aspect=fixed;shape=isoRectangle;rotation=-240;strokeWidth=1;fillColor=#d5e8d4;strokeColor=#82b366;container=0;" vertex="1" parent="1">
          <mxGeometry x="216.40999999999997" y="338.5" width="150" height="90" as="geometry" />
        </mxCell>
        <mxCell id="vK0zOUk7TIPSTApoR2ex-83" value="" style="html=1;whiteSpace=wrap;aspect=fixed;shape=isoRectangle;rotation=60;flipV=1;direction=west;fillColor=#BBCCBA;strokeColor=#82b366;container=0;" vertex="1" parent="1">
          <mxGeometry x="140.40999999999997" y="338.5" width="150" height="90" as="geometry" />
        </mxCell>
        <mxCell id="vK0zOUk7TIPSTApoR2ex-84" value="" style="html=1;whiteSpace=wrap;aspect=fixed;shape=isoRectangle;strokeWidth=1;fillColor=#E5FAE4;strokeColor=#82b366;container=0;" vertex="1" parent="1">
          <mxGeometry x="332.3499999999999" y="272.5" width="150" height="90" as="geometry" />
        </mxCell>
        <mxCell id="vK0zOUk7TIPSTApoR2ex-85" value="" style="html=1;whiteSpace=wrap;aspect=fixed;shape=isoRectangle;rotation=-240;strokeWidth=1;fillColor=#d5e8d4;strokeColor=#82b366;container=0;" vertex="1" parent="1">
          <mxGeometry x="370.3499999999999" y="338.5" width="150" height="90" as="geometry" />
        </mxCell>
        <mxCell id="vK0zOUk7TIPSTApoR2ex-86" value="" style="html=1;whiteSpace=wrap;aspect=fixed;shape=isoRectangle;rotation=60;flipV=1;direction=west;fillColor=#BBCCBA;strokeColor=#82b366;container=0;" vertex="1" parent="1">
          <mxGeometry x="294.34999999999997" y="338.5" width="150" height="90" as="geometry" />
        </mxCell>
        <mxCell id="vK0zOUk7TIPSTApoR2ex-87" value="" style="html=1;whiteSpace=wrap;aspect=fixed;shape=isoRectangle;strokeWidth=1;fillColor=#E5FAE4;strokeColor=#82b366;container=0;" vertex="1" parent="1">
          <mxGeometry x="254.87999999999994" y="317.5" width="150" height="90" as="geometry" />
        </mxCell>
        <mxCell id="vK0zOUk7TIPSTApoR2ex-88" value="" style="html=1;whiteSpace=wrap;aspect=fixed;shape=isoRectangle;rotation=-240;strokeWidth=1;fillColor=#d5e8d4;strokeColor=#82b366;container=0;" vertex="1" parent="1">
          <mxGeometry x="292.87999999999994" y="383.5" width="150" height="90" as="geometry" />
        </mxCell>
        <mxCell id="vK0zOUk7TIPSTApoR2ex-89" value="" style="html=1;whiteSpace=wrap;aspect=fixed;shape=isoRectangle;rotation=60;flipV=1;direction=west;fillColor=#BBCCBA;strokeColor=#82b366;container=0;" vertex="1" parent="1">
          <mxGeometry x="216.87999999999994" y="383.5" width="150" height="90" as="geometry" />
        </mxCell>
        <mxCell id="vK0zOUk7TIPSTApoR2ex-90" value="" style="html=1;whiteSpace=wrap;aspect=fixed;shape=isoRectangle;strokeWidth=1;fillColor=#e5fae4;strokeColor=#82b366;container=0;" vertex="1" parent="1">
          <mxGeometry x="409.28999999999996" y="317.5" width="150" height="90" as="geometry" />
        </mxCell>
        <mxCell id="vK0zOUk7TIPSTApoR2ex-91" value="" style="html=1;whiteSpace=wrap;aspect=fixed;shape=isoRectangle;rotation=-240;strokeWidth=1;fillColor=#EAFFE9;strokeColor=#82b366;container=0;" vertex="1" parent="1">
          <mxGeometry x="447.28999999999996" y="383.5" width="150" height="90" as="geometry" />
        </mxCell>
        <mxCell id="vK0zOUk7TIPSTApoR2ex-92" value="" style="html=1;whiteSpace=wrap;aspect=fixed;shape=isoRectangle;rotation=60;flipV=1;direction=west;fillColor=#BBCCBA;strokeColor=#82b366;container=0;" vertex="1" parent="1">
          <mxGeometry x="371.28999999999996" y="383.5" width="150" height="90" as="geometry" />
        </mxCell>
        <mxCell id="vK0zOUk7TIPSTApoR2ex-93" value="" style="html=1;whiteSpace=wrap;aspect=fixed;shape=isoRectangle;strokeWidth=1;fillColor=#e5fae4;strokeColor=#82b366;container=0;" vertex="1" parent="1">
          <mxGeometry x="331.81999999999994" y="362.5" width="150" height="90" as="geometry" />
        </mxCell>
        <mxCell id="vK0zOUk7TIPSTApoR2ex-94" value="" style="html=1;whiteSpace=wrap;aspect=fixed;shape=isoRectangle;rotation=-240;strokeWidth=1;fillColor=#EAFFE9;strokeColor=#82b366;container=0;" vertex="1" parent="1">
          <mxGeometry x="369.81999999999994" y="428.5" width="150" height="90" as="geometry" />
        </mxCell>
        <mxCell id="vK0zOUk7TIPSTApoR2ex-95" value="" style="html=1;whiteSpace=wrap;aspect=fixed;shape=isoRectangle;rotation=60;flipV=1;direction=west;fillColor=#bbccbb;strokeColor=#82b366;container=0;" vertex="1" parent="1">
          <mxGeometry x="293.82" y="428.5" width="150" height="90" as="geometry" />
        </mxCell>
        <mxCell id="vK0zOUk7TIPSTApoR2ex-102" value="" style="html=1;whiteSpace=wrap;aspect=fixed;shape=isoRectangle;strokeWidth=1;fillColor=#E5FAE4;strokeColor=#82b366;container=0;" vertex="1" parent="1">
          <mxGeometry x="179.71" y="180.75" width="150" height="90" as="geometry" />
        </mxCell>
        <mxCell id="vK0zOUk7TIPSTApoR2ex-103" value="" style="html=1;whiteSpace=wrap;aspect=fixed;shape=isoRectangle;rotation=-240;strokeWidth=1;fillColor=#d5e8d4;strokeColor=#82b366;container=0;" vertex="1" parent="1">
          <mxGeometry x="217.71" y="246.75" width="150" height="90" as="geometry" />
        </mxCell>
        <mxCell id="vK0zOUk7TIPSTApoR2ex-104" value="" style="html=1;whiteSpace=wrap;aspect=fixed;shape=isoRectangle;rotation=60;flipV=1;direction=west;fillColor=#BBCCBA;strokeColor=#82b366;container=0;" vertex="1" parent="1">
          <mxGeometry x="141.71" y="246.75" width="150" height="90" as="geometry" />
        </mxCell>
        <mxCell id="vK0zOUk7TIPSTApoR2ex-105" value="" style="html=1;whiteSpace=wrap;aspect=fixed;shape=isoRectangle;strokeWidth=1;fillColor=#E5FAE4;strokeColor=#82b366;container=0;" vertex="1" parent="1">
          <mxGeometry x="102.24" y="225.75" width="150" height="90" as="geometry" />
        </mxCell>
        <mxCell id="vK0zOUk7TIPSTApoR2ex-106" value="" style="html=1;whiteSpace=wrap;aspect=fixed;shape=isoRectangle;rotation=-240;strokeWidth=1;fillColor=#d5e8d4;strokeColor=#82b366;container=0;" vertex="1" parent="1">
          <mxGeometry x="140.24" y="291.75" width="150" height="90" as="geometry" />
        </mxCell>
        <mxCell id="vK0zOUk7TIPSTApoR2ex-107" value="" style="html=1;whiteSpace=wrap;aspect=fixed;shape=isoRectangle;rotation=60;flipV=1;direction=west;fillColor=#BBCCBA;strokeColor=#82b366;container=0;" vertex="1" parent="1">
          <mxGeometry x="64.24000000000001" y="291.75" width="150" height="90" as="geometry" />
        </mxCell>
        <mxCell id="vK0zOUk7TIPSTApoR2ex-108" value="" style="html=1;whiteSpace=wrap;aspect=fixed;shape=isoRectangle;strokeWidth=1;fillColor=#E5FAE4;strokeColor=#82b366;container=0;" vertex="1" parent="1">
          <mxGeometry x="256.18" y="225.75" width="150" height="90" as="geometry" />
        </mxCell>
        <mxCell id="vK0zOUk7TIPSTApoR2ex-109" value="" style="html=1;whiteSpace=wrap;aspect=fixed;shape=isoRectangle;rotation=-240;strokeWidth=1;fillColor=#d5e8d4;strokeColor=#82b366;container=0;" vertex="1" parent="1">
          <mxGeometry x="294.18" y="291.75" width="150" height="90" as="geometry" />
        </mxCell>
        <mxCell id="vK0zOUk7TIPSTApoR2ex-110" value="" style="html=1;whiteSpace=wrap;aspect=fixed;shape=isoRectangle;rotation=60;flipV=1;direction=west;fillColor=#BBCCBA;strokeColor=#82b366;container=0;" vertex="1" parent="1">
          <mxGeometry x="218.18" y="291.75" width="150" height="90" as="geometry" />
        </mxCell>
        <mxCell id="vK0zOUk7TIPSTApoR2ex-111" value="" style="html=1;whiteSpace=wrap;aspect=fixed;shape=isoRectangle;strokeWidth=1;fillColor=#E5FAE4;strokeColor=#82b366;container=0;" vertex="1" parent="1">
          <mxGeometry x="178.71" y="270.75" width="150" height="90" as="geometry" />
        </mxCell>
        <mxCell id="vK0zOUk7TIPSTApoR2ex-112" value="" style="html=1;whiteSpace=wrap;aspect=fixed;shape=isoRectangle;rotation=-240;strokeWidth=1;fillColor=#d5e8d4;strokeColor=#82b366;container=0;" vertex="1" parent="1">
          <mxGeometry x="216.71" y="336.75" width="150" height="90" as="geometry" />
        </mxCell>
        <mxCell id="vK0zOUk7TIPSTApoR2ex-113" value="" style="html=1;whiteSpace=wrap;aspect=fixed;shape=isoRectangle;rotation=60;flipV=1;direction=west;fillColor=#BBCCBA;strokeColor=#82b366;container=0;" vertex="1" parent="1">
          <mxGeometry x="140.71" y="336.75" width="150" height="90" as="geometry" />
        </mxCell>
        <mxCell id="vK0zOUk7TIPSTApoR2ex-114" value="" style="html=1;whiteSpace=wrap;aspect=fixed;shape=isoRectangle;strokeWidth=1;fillColor=#E5FAE4;strokeColor=#82b366;container=0;" vertex="1" parent="1">
          <mxGeometry x="333.12" y="270.75" width="150" height="90" as="geometry" />
        </mxCell>
        <mxCell id="vK0zOUk7TIPSTApoR2ex-115" value="" style="html=1;whiteSpace=wrap;aspect=fixed;shape=isoRectangle;rotation=-240;strokeWidth=1;fillColor=#d5e8d4;strokeColor=#82b366;container=0;" vertex="1" parent="1">
          <mxGeometry x="371.12" y="336.75" width="150" height="90" as="geometry" />
        </mxCell>
        <mxCell id="vK0zOUk7TIPSTApoR2ex-116" value="" style="html=1;whiteSpace=wrap;aspect=fixed;shape=isoRectangle;rotation=60;flipV=1;direction=west;fillColor=#BBCCBA;strokeColor=#82b366;container=0;" vertex="1" parent="1">
          <mxGeometry x="295.12" y="336.75" width="150" height="90" as="geometry" />
        </mxCell>
        <mxCell id="vK0zOUk7TIPSTApoR2ex-117" value="" style="html=1;whiteSpace=wrap;aspect=fixed;shape=isoRectangle;strokeWidth=1;fillColor=#E5FAE4;strokeColor=#82b366;container=0;" vertex="1" parent="1">
          <mxGeometry x="255.64999999999998" y="315.75" width="150" height="90" as="geometry" />
        </mxCell>
        <mxCell id="vK0zOUk7TIPSTApoR2ex-118" value="" style="html=1;whiteSpace=wrap;aspect=fixed;shape=isoRectangle;rotation=-240;strokeWidth=1;fillColor=#d5e8d4;strokeColor=#82b366;container=0;" vertex="1" parent="1">
          <mxGeometry x="293.65" y="381.75" width="150" height="90" as="geometry" />
        </mxCell>
        <mxCell id="vK0zOUk7TIPSTApoR2ex-119" value="" style="html=1;whiteSpace=wrap;aspect=fixed;shape=isoRectangle;rotation=60;flipV=1;direction=west;fillColor=#BBCCBA;strokeColor=#82b366;container=0;" vertex="1" parent="1">
          <mxGeometry x="217.65" y="381.75" width="150" height="90" as="geometry" />
        </mxCell>
        <mxCell id="vK0zOUk7TIPSTApoR2ex-120" value="" style="html=1;whiteSpace=wrap;aspect=fixed;shape=isoRectangle;strokeWidth=1;fillColor=#E5FAE4;strokeColor=#82b366;container=0;" vertex="1" parent="1">
          <mxGeometry x="409.59" y="315.75" width="150" height="90" as="geometry" />
        </mxCell>
        <mxCell id="vK0zOUk7TIPSTApoR2ex-121" value="" style="html=1;whiteSpace=wrap;aspect=fixed;shape=isoRectangle;rotation=-240;strokeWidth=1;fillColor=#d5e8d4;strokeColor=#82b366;container=0;" vertex="1" parent="1">
          <mxGeometry x="447.59" y="381.75" width="150" height="90" as="geometry" />
        </mxCell>
        <mxCell id="vK0zOUk7TIPSTApoR2ex-122" value="" style="html=1;whiteSpace=wrap;aspect=fixed;shape=isoRectangle;rotation=60;flipV=1;direction=west;fillColor=#BBCCBA;strokeColor=#82b366;container=0;" vertex="1" parent="1">
          <mxGeometry x="371.59" y="381.75" width="150" height="90" as="geometry" />
        </mxCell>
        <mxCell id="vK0zOUk7TIPSTApoR2ex-123" value="" style="html=1;whiteSpace=wrap;aspect=fixed;shape=isoRectangle;strokeWidth=1;fillColor=#E5FAE4;strokeColor=#82b366;container=0;" vertex="1" parent="1">
          <mxGeometry x="332.11999999999995" y="360.75" width="150" height="90" as="geometry" />
        </mxCell>
        <mxCell id="vK0zOUk7TIPSTApoR2ex-124" value="" style="html=1;whiteSpace=wrap;aspect=fixed;shape=isoRectangle;rotation=-240;strokeWidth=1;fillColor=#d5e8d4;strokeColor=#82b366;container=0;" vertex="1" parent="1">
          <mxGeometry x="370.11999999999995" y="426.75" width="150" height="90" as="geometry" />
        </mxCell>
        <mxCell id="vK0zOUk7TIPSTApoR2ex-125" value="" style="html=1;whiteSpace=wrap;aspect=fixed;shape=isoRectangle;rotation=60;flipV=1;direction=west;fillColor=#BBCCBA;strokeColor=#82b366;container=0;" vertex="1" parent="1">
          <mxGeometry x="294.11999999999995" y="426.75" width="150" height="90" as="geometry" />
        </mxCell>
        <mxCell id="vK0zOUk7TIPSTApoR2ex-126" value="" style="html=1;whiteSpace=wrap;aspect=fixed;shape=isoRectangle;strokeWidth=1;fillColor=#E5FAE4;strokeColor=#82b366;container=0;" vertex="1" parent="1">
          <mxGeometry x="486.53000000000003" y="360.75" width="150" height="90" as="geometry" />
        </mxCell>
        <mxCell id="vK0zOUk7TIPSTApoR2ex-127" value="" style="html=1;whiteSpace=wrap;aspect=fixed;shape=isoRectangle;rotation=-240;strokeWidth=1;fillColor=#EAFFE9;strokeColor=#82b366;container=0;" vertex="1" parent="1">
          <mxGeometry x="524.53" y="426.75" width="150" height="90" as="geometry" />
        </mxCell>
        <mxCell id="vK0zOUk7TIPSTApoR2ex-128" value="" style="html=1;whiteSpace=wrap;aspect=fixed;shape=isoRectangle;rotation=60;flipV=1;direction=west;fillColor=#BBCCBA;strokeColor=#82b366;container=0;" vertex="1" parent="1">
          <mxGeometry x="448.53000000000003" y="426.75" width="150" height="90" as="geometry" />
        </mxCell>
        <mxCell id="vK0zOUk7TIPSTApoR2ex-129" value="" style="html=1;whiteSpace=wrap;aspect=fixed;shape=isoRectangle;strokeWidth=1;fillColor=#E5FAE4;strokeColor=#82b366;container=0;" vertex="1" parent="1">
          <mxGeometry x="409.06" y="405.75" width="150" height="90" as="geometry" />
        </mxCell>
        <mxCell id="vK0zOUk7TIPSTApoR2ex-130" value="" style="html=1;whiteSpace=wrap;aspect=fixed;shape=isoRectangle;rotation=-240;strokeWidth=1;fillColor=#EAFFE9;strokeColor=#82b366;container=0;" vertex="1" parent="1">
          <mxGeometry x="447.06" y="471.75" width="150" height="90" as="geometry" />
        </mxCell>
        <mxCell id="vK0zOUk7TIPSTApoR2ex-131" value="" style="html=1;whiteSpace=wrap;aspect=fixed;shape=isoRectangle;rotation=60;flipV=1;direction=west;fillColor=#bbccbb;strokeColor=#d6b656;container=0;" vertex="1" parent="1">
          <mxGeometry x="371.06" y="471.75" width="150" height="90" as="geometry" />
        </mxCell>
        <mxCell id="vK0zOUk7TIPSTApoR2ex-132" value="" style="html=1;whiteSpace=wrap;aspect=fixed;shape=isoRectangle;strokeWidth=1;fillColor=#E5FAE4;strokeColor=#82b366;container=0;" vertex="1" parent="1">
          <mxGeometry x="179.71" y="91.75" width="150" height="90" as="geometry" />
        </mxCell>
        <mxCell id="vK0zOUk7TIPSTApoR2ex-133" value="" style="html=1;whiteSpace=wrap;aspect=fixed;shape=isoRectangle;rotation=-240;strokeWidth=1;fillColor=#d5e8d4;strokeColor=#82b366;container=0;" vertex="1" parent="1">
          <mxGeometry x="217.71" y="157.75" width="150" height="90" as="geometry" />
        </mxCell>
        <mxCell id="vK0zOUk7TIPSTApoR2ex-134" value="" style="html=1;whiteSpace=wrap;aspect=fixed;shape=isoRectangle;rotation=60;flipV=1;direction=west;fillColor=#BBCCBA;strokeColor=#82b366;container=0;" vertex="1" parent="1">
          <mxGeometry x="141.71" y="157.75" width="150" height="90" as="geometry" />
        </mxCell>
        <mxCell id="vK0zOUk7TIPSTApoR2ex-135" value="" style="html=1;whiteSpace=wrap;aspect=fixed;shape=isoRectangle;strokeWidth=1;fillColor=#E5FAE4;strokeColor=#82b366;container=0;" vertex="1" parent="1">
          <mxGeometry x="102.24" y="136.75" width="150" height="90" as="geometry" />
        </mxCell>
        <mxCell id="vK0zOUk7TIPSTApoR2ex-136" value="" style="html=1;whiteSpace=wrap;aspect=fixed;shape=isoRectangle;rotation=-240;strokeWidth=1;fillColor=#d5e8d4;strokeColor=#82b366;container=0;" vertex="1" parent="1">
          <mxGeometry x="140.24" y="202.75" width="150" height="90" as="geometry" />
        </mxCell>
        <mxCell id="vK0zOUk7TIPSTApoR2ex-137" value="" style="html=1;whiteSpace=wrap;aspect=fixed;shape=isoRectangle;rotation=60;flipV=1;direction=west;fillColor=#BBCCBA;strokeColor=#82b366;container=0;" vertex="1" parent="1">
          <mxGeometry x="64.24000000000001" y="202.75" width="150" height="90" as="geometry" />
        </mxCell>
        <mxCell id="vK0zOUk7TIPSTApoR2ex-138" value="" style="html=1;whiteSpace=wrap;aspect=fixed;shape=isoRectangle;strokeWidth=1;fillColor=#E5FAE4;strokeColor=#82b366;container=0;" vertex="1" parent="1">
          <mxGeometry x="256.18" y="136.75" width="150" height="90" as="geometry" />
        </mxCell>
        <mxCell id="vK0zOUk7TIPSTApoR2ex-139" value="" style="html=1;whiteSpace=wrap;aspect=fixed;shape=isoRectangle;rotation=-240;strokeWidth=1;fillColor=#d5e8d4;strokeColor=#82b366;container=0;" vertex="1" parent="1">
          <mxGeometry x="294.18" y="202.75" width="150" height="90" as="geometry" />
        </mxCell>
        <mxCell id="vK0zOUk7TIPSTApoR2ex-140" value="" style="html=1;whiteSpace=wrap;aspect=fixed;shape=isoRectangle;rotation=60;flipV=1;direction=west;fillColor=#BBCCBA;strokeColor=#82b366;container=0;" vertex="1" parent="1">
          <mxGeometry x="218.18" y="202.75" width="150" height="90" as="geometry" />
        </mxCell>
        <mxCell id="vK0zOUk7TIPSTApoR2ex-141" value="" style="html=1;whiteSpace=wrap;aspect=fixed;shape=isoRectangle;strokeWidth=1;fillColor=#E5FAE4;strokeColor=#82b366;container=0;" vertex="1" parent="1">
          <mxGeometry x="178.71" y="181.75" width="150" height="90" as="geometry" />
        </mxCell>
        <mxCell id="vK0zOUk7TIPSTApoR2ex-142" value="" style="html=1;whiteSpace=wrap;aspect=fixed;shape=isoRectangle;rotation=-240;strokeWidth=1;fillColor=#d5e8d4;strokeColor=#82b366;container=0;" vertex="1" parent="1">
          <mxGeometry x="216.71" y="247.75" width="150" height="90" as="geometry" />
        </mxCell>
        <mxCell id="vK0zOUk7TIPSTApoR2ex-143" value="" style="html=1;whiteSpace=wrap;aspect=fixed;shape=isoRectangle;rotation=60;flipV=1;direction=west;fillColor=#BBCCBA;strokeColor=#82b366;container=0;" vertex="1" parent="1">
          <mxGeometry x="140.71" y="247.75" width="150" height="90" as="geometry" />
        </mxCell>
        <mxCell id="vK0zOUk7TIPSTApoR2ex-144" value="" style="html=1;whiteSpace=wrap;aspect=fixed;shape=isoRectangle;strokeWidth=1;fillColor=#E5FAE4;strokeColor=#82b366;container=0;" vertex="1" parent="1">
          <mxGeometry x="333.12" y="181.75" width="150" height="90" as="geometry" />
        </mxCell>
        <mxCell id="vK0zOUk7TIPSTApoR2ex-145" value="" style="html=1;whiteSpace=wrap;aspect=fixed;shape=isoRectangle;rotation=-240;strokeWidth=1;fillColor=#d5e8d4;strokeColor=#82b366;container=0;" vertex="1" parent="1">
          <mxGeometry x="371.12" y="247.75" width="150" height="90" as="geometry" />
        </mxCell>
        <mxCell id="vK0zOUk7TIPSTApoR2ex-146" value="" style="html=1;whiteSpace=wrap;aspect=fixed;shape=isoRectangle;rotation=60;flipV=1;direction=west;fillColor=#BBCCBA;strokeColor=#82b366;container=0;" vertex="1" parent="1">
          <mxGeometry x="295.12" y="247.75" width="150" height="90" as="geometry" />
        </mxCell>
        <mxCell id="vK0zOUk7TIPSTApoR2ex-147" value="" style="html=1;whiteSpace=wrap;aspect=fixed;shape=isoRectangle;strokeWidth=1;fillColor=#E5FAE4;strokeColor=#82b366;container=0;" vertex="1" parent="1">
          <mxGeometry x="255.64999999999998" y="226.75" width="150" height="90" as="geometry" />
        </mxCell>
        <mxCell id="vK0zOUk7TIPSTApoR2ex-148" value="" style="html=1;whiteSpace=wrap;aspect=fixed;shape=isoRectangle;rotation=-240;strokeWidth=1;fillColor=#d5e8d4;strokeColor=#82b366;container=0;" vertex="1" parent="1">
          <mxGeometry x="293.65" y="292.75" width="150" height="90" as="geometry" />
        </mxCell>
        <mxCell id="vK0zOUk7TIPSTApoR2ex-149" value="" style="html=1;whiteSpace=wrap;aspect=fixed;shape=isoRectangle;rotation=60;flipV=1;direction=west;fillColor=#BBCCBA;strokeColor=#82b366;container=0;" vertex="1" parent="1">
          <mxGeometry x="217.65" y="292.75" width="150" height="90" as="geometry" />
        </mxCell>
        <mxCell id="vK0zOUk7TIPSTApoR2ex-150" value="" style="html=1;whiteSpace=wrap;aspect=fixed;shape=isoRectangle;strokeWidth=1;fillColor=#E5FAE4;strokeColor=#82b366;container=0;" vertex="1" parent="1">
          <mxGeometry x="409.59" y="226.75" width="150" height="90" as="geometry" />
        </mxCell>
        <mxCell id="vK0zOUk7TIPSTApoR2ex-151" value="" style="html=1;whiteSpace=wrap;aspect=fixed;shape=isoRectangle;rotation=-240;strokeWidth=1;fillColor=#d5e8d4;strokeColor=#82b366;container=0;" vertex="1" parent="1">
          <mxGeometry x="447.59" y="292.75" width="150" height="90" as="geometry" />
        </mxCell>
        <mxCell id="vK0zOUk7TIPSTApoR2ex-152" value="" style="html=1;whiteSpace=wrap;aspect=fixed;shape=isoRectangle;rotation=60;flipV=1;direction=west;fillColor=#BBCCBA;strokeColor=#82b366;container=0;" vertex="1" parent="1">
          <mxGeometry x="371.59" y="292.75" width="150" height="90" as="geometry" />
        </mxCell>
        <mxCell id="vK0zOUk7TIPSTApoR2ex-153" value="" style="html=1;whiteSpace=wrap;aspect=fixed;shape=isoRectangle;strokeWidth=1;fillColor=#E5FAE4;strokeColor=#82b366;container=0;" vertex="1" parent="1">
          <mxGeometry x="332.11999999999995" y="271.75" width="150" height="90" as="geometry" />
        </mxCell>
        <mxCell id="vK0zOUk7TIPSTApoR2ex-154" value="" style="html=1;whiteSpace=wrap;aspect=fixed;shape=isoRectangle;rotation=-240;strokeWidth=1;fillColor=#d5e8d4;strokeColor=#82b366;container=0;" vertex="1" parent="1">
          <mxGeometry x="370.11999999999995" y="337.75" width="150" height="90" as="geometry" />
        </mxCell>
        <mxCell id="vK0zOUk7TIPSTApoR2ex-155" value="" style="html=1;whiteSpace=wrap;aspect=fixed;shape=isoRectangle;rotation=60;flipV=1;direction=west;fillColor=#BBCCBA;strokeColor=#82b366;container=0;" vertex="1" parent="1">
          <mxGeometry x="294.11999999999995" y="337.75" width="150" height="90" as="geometry" />
        </mxCell>
        <mxCell id="vK0zOUk7TIPSTApoR2ex-156" value="" style="html=1;whiteSpace=wrap;aspect=fixed;shape=isoRectangle;strokeWidth=1;fillColor=#E5FAE4;strokeColor=#82b366;container=0;" vertex="1" parent="1">
          <mxGeometry x="486.53000000000003" y="271.75" width="150" height="90" as="geometry" />
        </mxCell>
        <mxCell id="vK0zOUk7TIPSTApoR2ex-157" value="" style="html=1;whiteSpace=wrap;aspect=fixed;shape=isoRectangle;rotation=-240;strokeWidth=1;fillColor=#EAFFE9;strokeColor=#82b366;container=0;" vertex="1" parent="1">
          <mxGeometry x="524.53" y="337.75" width="150" height="90" as="geometry" />
        </mxCell>
        <mxCell id="vK0zOUk7TIPSTApoR2ex-158" value="" style="html=1;whiteSpace=wrap;aspect=fixed;shape=isoRectangle;rotation=60;flipV=1;direction=west;fillColor=#BBCCBA;strokeColor=#82b366;container=0;" vertex="1" parent="1">
          <mxGeometry x="448.53000000000003" y="337.75" width="150" height="90" as="geometry" />
        </mxCell>
        <mxCell id="vK0zOUk7TIPSTApoR2ex-159" value="" style="html=1;whiteSpace=wrap;aspect=fixed;shape=isoRectangle;strokeWidth=1;fillColor=#E5FAE4;strokeColor=#82b366;container=0;" vertex="1" parent="1">
          <mxGeometry x="409.06" y="316.75" width="150" height="90" as="geometry" />
        </mxCell>
        <mxCell id="vK0zOUk7TIPSTApoR2ex-160" value="" style="html=1;whiteSpace=wrap;aspect=fixed;shape=isoRectangle;rotation=-240;strokeWidth=1;fillColor=#EAFFE9;strokeColor=#82b366;container=0;" vertex="1" parent="1">
          <mxGeometry x="447.06" y="382.75" width="150" height="90" as="geometry" />
        </mxCell>
        <mxCell id="vK0zOUk7TIPSTApoR2ex-161" value="" style="html=1;whiteSpace=wrap;aspect=fixed;shape=isoRectangle;rotation=60;flipV=1;direction=west;fillColor=#bbccbb;strokeColor=#d6b656;container=0;" vertex="1" parent="1">
          <mxGeometry x="371.06" y="382.75" width="150" height="90" as="geometry" />
        </mxCell>
        <mxCell id="vK0zOUk7TIPSTApoR2ex-162" value="" style="html=1;whiteSpace=wrap;aspect=fixed;shape=isoRectangle;strokeWidth=1;fillColor=#E5FAE4;strokeColor=#82b366;container=0;" vertex="1" parent="1">
          <mxGeometry x="179.71" y="2.75" width="150" height="90" as="geometry" />
        </mxCell>
        <mxCell id="vK0zOUk7TIPSTApoR2ex-163" value="" style="html=1;whiteSpace=wrap;aspect=fixed;shape=isoRectangle;rotation=-240;strokeWidth=1;fillColor=#d5e8d4;strokeColor=#82b366;container=0;" vertex="1" parent="1">
          <mxGeometry x="217.71" y="68.75" width="150" height="90" as="geometry" />
        </mxCell>
        <mxCell id="vK0zOUk7TIPSTApoR2ex-164" value="" style="html=1;whiteSpace=wrap;aspect=fixed;shape=isoRectangle;rotation=60;flipV=1;direction=west;fillColor=#BBCCBA;strokeColor=#82b366;container=0;" vertex="1" parent="1">
          <mxGeometry x="141.71" y="68.75" width="150" height="90" as="geometry" />
        </mxCell>
        <mxCell id="vK0zOUk7TIPSTApoR2ex-165" value="" style="html=1;whiteSpace=wrap;aspect=fixed;shape=isoRectangle;strokeWidth=1;fillColor=#E5FAE4;strokeColor=#82b366;container=0;" vertex="1" parent="1">
          <mxGeometry x="102.24" y="47.75" width="150" height="90" as="geometry" />
        </mxCell>
        <mxCell id="vK0zOUk7TIPSTApoR2ex-166" value="" style="html=1;whiteSpace=wrap;aspect=fixed;shape=isoRectangle;rotation=-240;strokeWidth=1;fillColor=#d5e8d4;strokeColor=#82b366;container=0;" vertex="1" parent="1">
          <mxGeometry x="140.24" y="113.75" width="150" height="90" as="geometry" />
        </mxCell>
        <mxCell id="vK0zOUk7TIPSTApoR2ex-167" value="" style="html=1;whiteSpace=wrap;aspect=fixed;shape=isoRectangle;rotation=60;flipV=1;direction=west;fillColor=#BBCCBA;strokeColor=#82b366;container=0;" vertex="1" parent="1">
          <mxGeometry x="64.24000000000001" y="113.75" width="150" height="90" as="geometry" />
        </mxCell>
        <mxCell id="vK0zOUk7TIPSTApoR2ex-168" value="" style="html=1;whiteSpace=wrap;aspect=fixed;shape=isoRectangle;strokeWidth=1;fillColor=#E5FAE4;strokeColor=#82b366;container=0;" vertex="1" parent="1">
          <mxGeometry x="256.18" y="47.75" width="150" height="90" as="geometry" />
        </mxCell>
        <mxCell id="vK0zOUk7TIPSTApoR2ex-169" value="" style="html=1;whiteSpace=wrap;aspect=fixed;shape=isoRectangle;rotation=-240;strokeWidth=1;fillColor=#d5e8d4;strokeColor=#82b366;container=0;" vertex="1" parent="1">
          <mxGeometry x="294.18" y="113.75" width="150" height="90" as="geometry" />
        </mxCell>
        <mxCell id="vK0zOUk7TIPSTApoR2ex-170" value="" style="html=1;whiteSpace=wrap;aspect=fixed;shape=isoRectangle;rotation=60;flipV=1;direction=west;fillColor=#BBCCBA;strokeColor=#82b366;container=0;" vertex="1" parent="1">
          <mxGeometry x="218.18" y="113.75" width="150" height="90" as="geometry" />
        </mxCell>
        <mxCell id="vK0zOUk7TIPSTApoR2ex-171" value="" style="html=1;whiteSpace=wrap;aspect=fixed;shape=isoRectangle;strokeWidth=1;fillColor=#E5FAE4;strokeColor=#82b366;container=0;" vertex="1" parent="1">
          <mxGeometry x="178.71" y="92.75" width="150" height="90" as="geometry" />
        </mxCell>
        <mxCell id="vK0zOUk7TIPSTApoR2ex-172" value="" style="html=1;whiteSpace=wrap;aspect=fixed;shape=isoRectangle;rotation=-240;strokeWidth=1;fillColor=#d5e8d4;strokeColor=#82b366;container=0;" vertex="1" parent="1">
          <mxGeometry x="216.71" y="158.75" width="150" height="90" as="geometry" />
        </mxCell>
        <mxCell id="vK0zOUk7TIPSTApoR2ex-173" value="" style="html=1;whiteSpace=wrap;aspect=fixed;shape=isoRectangle;rotation=60;flipV=1;direction=west;fillColor=#BBCCBA;strokeColor=#82b366;container=0;" vertex="1" parent="1">
          <mxGeometry x="140.71" y="158.75" width="150" height="90" as="geometry" />
        </mxCell>
        <mxCell id="vK0zOUk7TIPSTApoR2ex-174" value="" style="html=1;whiteSpace=wrap;aspect=fixed;shape=isoRectangle;strokeWidth=1;fillColor=#E5FAE4;strokeColor=#82b366;container=0;" vertex="1" parent="1">
          <mxGeometry x="333.12" y="92.75" width="150" height="90" as="geometry" />
        </mxCell>
        <mxCell id="vK0zOUk7TIPSTApoR2ex-175" value="" style="html=1;whiteSpace=wrap;aspect=fixed;shape=isoRectangle;rotation=-240;strokeWidth=1;fillColor=#d5e8d4;strokeColor=#82b366;container=0;" vertex="1" parent="1">
          <mxGeometry x="371.12" y="158.75" width="150" height="90" as="geometry" />
        </mxCell>
        <mxCell id="vK0zOUk7TIPSTApoR2ex-176" value="" style="html=1;whiteSpace=wrap;aspect=fixed;shape=isoRectangle;rotation=60;flipV=1;direction=west;fillColor=#BBCCBA;strokeColor=#82b366;container=0;" vertex="1" parent="1">
          <mxGeometry x="295.12" y="158.75" width="150" height="90" as="geometry" />
        </mxCell>
        <mxCell id="vK0zOUk7TIPSTApoR2ex-177" value="" style="html=1;whiteSpace=wrap;aspect=fixed;shape=isoRectangle;strokeWidth=1;fillColor=#E5FAE4;strokeColor=#82b366;container=0;" vertex="1" parent="1">
          <mxGeometry x="255.64999999999998" y="137.75" width="150" height="90" as="geometry" />
        </mxCell>
        <mxCell id="vK0zOUk7TIPSTApoR2ex-178" value="" style="html=1;whiteSpace=wrap;aspect=fixed;shape=isoRectangle;rotation=-240;strokeWidth=1;fillColor=#d5e8d4;strokeColor=#82b366;container=0;" vertex="1" parent="1">
          <mxGeometry x="293.65" y="203.75" width="150" height="90" as="geometry" />
        </mxCell>
        <mxCell id="vK0zOUk7TIPSTApoR2ex-179" value="" style="html=1;whiteSpace=wrap;aspect=fixed;shape=isoRectangle;rotation=60;flipV=1;direction=west;fillColor=#BBCCBA;strokeColor=#82b366;container=0;" vertex="1" parent="1">
          <mxGeometry x="217.65" y="203.75" width="150" height="90" as="geometry" />
        </mxCell>
        <mxCell id="vK0zOUk7TIPSTApoR2ex-180" value="" style="html=1;whiteSpace=wrap;aspect=fixed;shape=isoRectangle;strokeWidth=1;fillColor=#E5FAE4;strokeColor=#82b366;container=0;" vertex="1" parent="1">
          <mxGeometry x="409.59" y="137.75" width="150" height="90" as="geometry" />
        </mxCell>
        <mxCell id="vK0zOUk7TIPSTApoR2ex-181" value="" style="html=1;whiteSpace=wrap;aspect=fixed;shape=isoRectangle;rotation=-240;strokeWidth=1;fillColor=#d5e8d4;strokeColor=#82b366;container=0;" vertex="1" parent="1">
          <mxGeometry x="447.59" y="203.75" width="150" height="90" as="geometry" />
        </mxCell>
        <mxCell id="vK0zOUk7TIPSTApoR2ex-182" value="" style="html=1;whiteSpace=wrap;aspect=fixed;shape=isoRectangle;rotation=60;flipV=1;direction=west;fillColor=#BBCCBA;strokeColor=#82b366;container=0;" vertex="1" parent="1">
          <mxGeometry x="371.59" y="203.75" width="150" height="90" as="geometry" />
        </mxCell>
        <mxCell id="vK0zOUk7TIPSTApoR2ex-183" value="" style="html=1;whiteSpace=wrap;aspect=fixed;shape=isoRectangle;strokeWidth=1;fillColor=#E5FAE4;strokeColor=#82b366;container=0;" vertex="1" parent="1">
          <mxGeometry x="332.11999999999995" y="182.75" width="150" height="90" as="geometry" />
        </mxCell>
        <mxCell id="vK0zOUk7TIPSTApoR2ex-184" value="" style="html=1;whiteSpace=wrap;aspect=fixed;shape=isoRectangle;rotation=-240;strokeWidth=1;fillColor=#d5e8d4;strokeColor=#82b366;container=0;" vertex="1" parent="1">
          <mxGeometry x="370.11999999999995" y="248.75" width="150" height="90" as="geometry" />
        </mxCell>
        <mxCell id="vK0zOUk7TIPSTApoR2ex-185" value="" style="html=1;whiteSpace=wrap;aspect=fixed;shape=isoRectangle;rotation=60;flipV=1;direction=west;fillColor=#BBCCBA;strokeColor=#82b366;container=0;" vertex="1" parent="1">
          <mxGeometry x="294.11999999999995" y="248.75" width="150" height="90" as="geometry" />
        </mxCell>
        <mxCell id="vK0zOUk7TIPSTApoR2ex-186" value="" style="html=1;whiteSpace=wrap;aspect=fixed;shape=isoRectangle;strokeWidth=1;fillColor=#e5fae4;strokeColor=#82b366;container=0;" vertex="1" parent="1">
          <mxGeometry x="486.53000000000003" y="182.75" width="150" height="90" as="geometry" />
        </mxCell>
        <mxCell id="vK0zOUk7TIPSTApoR2ex-187" value="" style="html=1;whiteSpace=wrap;aspect=fixed;shape=isoRectangle;rotation=-240;strokeWidth=1;fillColor=#EAFFE9;strokeColor=#82b366;container=0;" vertex="1" parent="1">
          <mxGeometry x="524.53" y="248.75" width="150" height="90" as="geometry" />
        </mxCell>
        <mxCell id="vK0zOUk7TIPSTApoR2ex-188" value="" style="html=1;whiteSpace=wrap;aspect=fixed;shape=isoRectangle;rotation=60;flipV=1;direction=west;fillColor=#BBCCBA;strokeColor=#82b366;container=0;" vertex="1" parent="1">
          <mxGeometry x="448.53000000000003" y="248.75" width="150" height="90" as="geometry" />
        </mxCell>
        <mxCell id="vK0zOUk7TIPSTApoR2ex-189" value="" style="html=1;whiteSpace=wrap;aspect=fixed;shape=isoRectangle;strokeWidth=1;fillColor=#e5fae4;strokeColor=#82b366;container=0;" vertex="1" parent="1">
          <mxGeometry x="409.06" y="227.75" width="150" height="90" as="geometry" />
        </mxCell>
        <mxCell id="vK0zOUk7TIPSTApoR2ex-190" value="" style="html=1;whiteSpace=wrap;aspect=fixed;shape=isoRectangle;rotation=-240;strokeWidth=1;fillColor=#EAFFE9;strokeColor=#82b366;container=0;" vertex="1" parent="1">
          <mxGeometry x="447.06" y="293.75" width="150" height="90" as="geometry" />
        </mxCell>
        <mxCell id="vK0zOUk7TIPSTApoR2ex-191" value="" style="html=1;whiteSpace=wrap;aspect=fixed;shape=isoRectangle;rotation=60;flipV=1;direction=west;fillColor=#bbccbb;strokeColor=#82b366;container=0;" vertex="1" parent="1">
          <mxGeometry x="371.06" y="293.75" width="150" height="90" as="geometry" />
        </mxCell>
        <mxCell id="vK0zOUk7TIPSTApoR2ex-192" value="" style="html=1;whiteSpace=wrap;aspect=fixed;shape=isoRectangle;strokeWidth=1;fillColor=#E5FAE4;strokeColor=#82b366;container=0;" vertex="1" parent="1">
          <mxGeometry x="102.71000000000002" y="226.25" width="150" height="90" as="geometry" />
        </mxCell>
        <mxCell id="vK0zOUk7TIPSTApoR2ex-193" value="" style="html=1;whiteSpace=wrap;aspect=fixed;shape=isoRectangle;rotation=-240;strokeWidth=1;fillColor=#d5e8d4;strokeColor=#82b366;container=0;" vertex="1" parent="1">
          <mxGeometry x="140.71000000000004" y="292.25" width="150" height="90" as="geometry" />
        </mxCell>
        <mxCell id="vK0zOUk7TIPSTApoR2ex-194" value="" style="html=1;whiteSpace=wrap;aspect=fixed;shape=isoRectangle;rotation=60;flipV=1;direction=west;fillColor=#BBCCBA;strokeColor=#82b366;container=0;" vertex="1" parent="1">
          <mxGeometry x="64.71000000000001" y="292.25" width="150" height="90" as="geometry" />
        </mxCell>
        <mxCell id="vK0zOUk7TIPSTApoR2ex-195" value="" style="html=1;whiteSpace=wrap;aspect=fixed;shape=isoRectangle;strokeWidth=1;fillColor=#E5FAE4;strokeColor=#82b366;container=0;" vertex="1" parent="1">
          <mxGeometry x="25.240000000000002" y="271.25" width="150" height="90" as="geometry" />
        </mxCell>
        <mxCell id="vK0zOUk7TIPSTApoR2ex-196" value="" style="html=1;whiteSpace=wrap;aspect=fixed;shape=isoRectangle;rotation=-240;strokeWidth=1;fillColor=#d5e8d4;strokeColor=#82b366;container=0;" vertex="1" parent="1">
          <mxGeometry x="63.24" y="337.25" width="150" height="90" as="geometry" />
        </mxCell>
        <mxCell id="vK0zOUk7TIPSTApoR2ex-197" value="" style="html=1;whiteSpace=wrap;aspect=fixed;shape=isoRectangle;rotation=60;flipV=1;direction=west;fillColor=#BBCCBA;strokeColor=#82b366;container=0;" vertex="1" parent="1">
          <mxGeometry x="-12.76" y="337.25" width="150" height="90" as="geometry" />
        </mxCell>
        <mxCell id="vK0zOUk7TIPSTApoR2ex-198" value="" style="html=1;whiteSpace=wrap;aspect=fixed;shape=isoRectangle;strokeWidth=1;fillColor=#E5FAE4;strokeColor=#82b366;container=0;" vertex="1" parent="1">
          <mxGeometry x="179.18" y="271.25" width="150" height="90" as="geometry" />
        </mxCell>
        <mxCell id="vK0zOUk7TIPSTApoR2ex-199" value="" style="html=1;whiteSpace=wrap;aspect=fixed;shape=isoRectangle;rotation=-240;strokeWidth=1;fillColor=#d5e8d4;strokeColor=#82b366;container=0;" vertex="1" parent="1">
          <mxGeometry x="217.18" y="337.25" width="150" height="90" as="geometry" />
        </mxCell>
        <mxCell id="vK0zOUk7TIPSTApoR2ex-200" value="" style="html=1;whiteSpace=wrap;aspect=fixed;shape=isoRectangle;rotation=60;flipV=1;direction=west;fillColor=#BBCCBA;strokeColor=#82b366;container=0;" vertex="1" parent="1">
          <mxGeometry x="141.18" y="337.25" width="150" height="90" as="geometry" />
        </mxCell>
        <mxCell id="vK0zOUk7TIPSTApoR2ex-201" value="" style="html=1;whiteSpace=wrap;aspect=fixed;shape=isoRectangle;strokeWidth=1;fillColor=#E5FAE4;strokeColor=#82b366;container=0;" vertex="1" parent="1">
          <mxGeometry x="101.71000000000002" y="316.25" width="150" height="90" as="geometry" />
        </mxCell>
        <mxCell id="vK0zOUk7TIPSTApoR2ex-202" value="" style="html=1;whiteSpace=wrap;aspect=fixed;shape=isoRectangle;rotation=-240;strokeWidth=1;fillColor=#d5e8d4;strokeColor=#82b366;container=0;" vertex="1" parent="1">
          <mxGeometry x="139.71000000000004" y="382.25" width="150" height="90" as="geometry" />
        </mxCell>
        <mxCell id="vK0zOUk7TIPSTApoR2ex-203" value="" style="html=1;whiteSpace=wrap;aspect=fixed;shape=isoRectangle;rotation=60;flipV=1;direction=west;fillColor=#BBCCBA;strokeColor=#82b366;container=0;" vertex="1" parent="1">
          <mxGeometry x="63.71" y="382.25" width="150" height="90" as="geometry" />
        </mxCell>
        <mxCell id="vK0zOUk7TIPSTApoR2ex-205" value="" style="html=1;whiteSpace=wrap;aspect=fixed;shape=isoRectangle;strokeWidth=1;fillColor=#E5FAE4;strokeColor=#82b366;container=0;" vertex="1" parent="1">
          <mxGeometry x="256.12" y="316.25" width="150" height="90" as="geometry" />
        </mxCell>
        <mxCell id="vK0zOUk7TIPSTApoR2ex-206" value="" style="html=1;whiteSpace=wrap;aspect=fixed;shape=isoRectangle;rotation=-240;strokeWidth=1;fillColor=#d5e8d4;strokeColor=#82b366;container=0;" vertex="1" parent="1">
          <mxGeometry x="294.12" y="382.25" width="150" height="90" as="geometry" />
        </mxCell>
        <mxCell id="vK0zOUk7TIPSTApoR2ex-207" value="" style="html=1;whiteSpace=wrap;aspect=fixed;shape=isoRectangle;rotation=60;flipV=1;direction=west;fillColor=#BBCCBA;strokeColor=#82b366;container=0;" vertex="1" parent="1">
          <mxGeometry x="218.12" y="382.25" width="150" height="90" as="geometry" />
        </mxCell>
        <mxCell id="vK0zOUk7TIPSTApoR2ex-208" value="" style="html=1;whiteSpace=wrap;aspect=fixed;shape=isoRectangle;strokeWidth=1;fillColor=#E5FAE4;strokeColor=#82b366;container=0;" vertex="1" parent="1">
          <mxGeometry x="178.64999999999998" y="361.25" width="150" height="90" as="geometry" />
        </mxCell>
        <mxCell id="vK0zOUk7TIPSTApoR2ex-209" value="" style="html=1;whiteSpace=wrap;aspect=fixed;shape=isoRectangle;rotation=-240;strokeWidth=1;fillColor=#d5e8d4;strokeColor=#82b366;container=0;" vertex="1" parent="1">
          <mxGeometry x="216.64999999999998" y="427.25" width="150" height="90" as="geometry" />
        </mxCell>
        <mxCell id="vK0zOUk7TIPSTApoR2ex-210" value="" style="html=1;whiteSpace=wrap;aspect=fixed;shape=isoRectangle;rotation=60;flipV=1;direction=west;fillColor=#BBCCBA;strokeColor=#82b366;container=0;" vertex="1" parent="1">
          <mxGeometry x="140.64999999999998" y="427.25" width="150" height="90" as="geometry" />
        </mxCell>
        <mxCell id="vK0zOUk7TIPSTApoR2ex-211" value="" style="html=1;whiteSpace=wrap;aspect=fixed;shape=isoRectangle;strokeWidth=1;fillColor=#E5FAE4;strokeColor=#82b366;container=0;" vertex="1" parent="1">
          <mxGeometry x="332.5899999999999" y="361.25" width="150" height="90" as="geometry" />
        </mxCell>
        <mxCell id="vK0zOUk7TIPSTApoR2ex-212" value="" style="html=1;whiteSpace=wrap;aspect=fixed;shape=isoRectangle;rotation=-240;strokeWidth=1;fillColor=#d5e8d4;strokeColor=#82b366;container=0;" vertex="1" parent="1">
          <mxGeometry x="370.5899999999999" y="427.25" width="150" height="90" as="geometry" />
        </mxCell>
        <mxCell id="vK0zOUk7TIPSTApoR2ex-213" value="" style="html=1;whiteSpace=wrap;aspect=fixed;shape=isoRectangle;rotation=60;flipV=1;direction=west;fillColor=#BBCCBA;strokeColor=#82b366;container=0;" vertex="1" parent="1">
          <mxGeometry x="294.59" y="427.25" width="150" height="90" as="geometry" />
        </mxCell>
        <mxCell id="vK0zOUk7TIPSTApoR2ex-214" value="" style="html=1;whiteSpace=wrap;aspect=fixed;shape=isoRectangle;strokeWidth=1;fillColor=#E5FAE4;strokeColor=#82b366;container=0;" vertex="1" parent="1">
          <mxGeometry x="255.11999999999995" y="406.25" width="150" height="90" as="geometry" />
        </mxCell>
        <mxCell id="vK0zOUk7TIPSTApoR2ex-215" value="" style="html=1;whiteSpace=wrap;aspect=fixed;shape=isoRectangle;rotation=-240;strokeWidth=1;fillColor=#d5e8d4;strokeColor=#82b366;container=0;" vertex="1" parent="1">
          <mxGeometry x="293.11999999999995" y="472.25" width="150" height="90" as="geometry" />
        </mxCell>
        <mxCell id="vK0zOUk7TIPSTApoR2ex-216" value="" style="html=1;whiteSpace=wrap;aspect=fixed;shape=isoRectangle;rotation=60;flipV=1;direction=west;fillColor=#BBCCBA;strokeColor=#82b366;container=0;" vertex="1" parent="1">
          <mxGeometry x="217.11999999999995" y="472.25" width="150" height="90" as="geometry" />
        </mxCell>
        <mxCell id="vK0zOUk7TIPSTApoR2ex-217" value="" style="html=1;whiteSpace=wrap;aspect=fixed;shape=isoRectangle;strokeWidth=1;fillColor=#E5FAE4;strokeColor=#82b366;container=0;" vertex="1" parent="1">
          <mxGeometry x="409.53" y="406.25" width="150" height="90" as="geometry" />
        </mxCell>
        <mxCell id="vK0zOUk7TIPSTApoR2ex-218" value="" style="html=1;whiteSpace=wrap;aspect=fixed;shape=isoRectangle;rotation=-240;strokeWidth=1;fillColor=#EAFFE9;strokeColor=#82b366;container=0;" vertex="1" parent="1">
          <mxGeometry x="447.53" y="472.25" width="150" height="90" as="geometry" />
        </mxCell>
        <mxCell id="vK0zOUk7TIPSTApoR2ex-219" value="" style="html=1;whiteSpace=wrap;aspect=fixed;shape=isoRectangle;rotation=60;flipV=1;direction=west;fillColor=#BBCCBA;strokeColor=#82b366;container=0;" vertex="1" parent="1">
          <mxGeometry x="371.53" y="472.25" width="150" height="90" as="geometry" />
        </mxCell>
        <mxCell id="vK0zOUk7TIPSTApoR2ex-220" value="" style="html=1;whiteSpace=wrap;aspect=fixed;shape=isoRectangle;strokeWidth=1;fillColor=#E5FAE4;strokeColor=#82b366;container=0;" vertex="1" parent="1">
          <mxGeometry x="332.05999999999995" y="451.25" width="150" height="90" as="geometry" />
        </mxCell>
        <mxCell id="vK0zOUk7TIPSTApoR2ex-221" value="" style="html=1;whiteSpace=wrap;aspect=fixed;shape=isoRectangle;rotation=-240;strokeWidth=1;fillColor=#EAFFE9;strokeColor=#82b366;container=0;" vertex="1" parent="1">
          <mxGeometry x="370.05999999999995" y="517.25" width="150" height="90" as="geometry" />
        </mxCell>
        <mxCell id="vK0zOUk7TIPSTApoR2ex-222" value="" style="html=1;whiteSpace=wrap;aspect=fixed;shape=isoRectangle;rotation=60;flipV=1;direction=west;fillColor=#bbccbb;strokeColor=#82b366;container=0;" vertex="1" parent="1">
          <mxGeometry x="294.06" y="517.25" width="150" height="90" as="geometry" />
        </mxCell>
        <mxCell id="vK0zOUk7TIPSTApoR2ex-224" value="" style="html=1;whiteSpace=wrap;aspect=fixed;shape=isoRectangle;strokeWidth=1;fillColor=#E5FAE4;strokeColor=#82b366;container=0;" vertex="1" parent="1">
          <mxGeometry x="102.71000000000002" y="137.25" width="150" height="90" as="geometry" />
        </mxCell>
        <mxCell id="vK0zOUk7TIPSTApoR2ex-225" value="" style="html=1;whiteSpace=wrap;aspect=fixed;shape=isoRectangle;rotation=-240;strokeWidth=1;fillColor=#d5e8d4;strokeColor=#82b366;container=0;" vertex="1" parent="1">
          <mxGeometry x="140.71000000000004" y="203.25" width="150" height="90" as="geometry" />
        </mxCell>
        <mxCell id="vK0zOUk7TIPSTApoR2ex-226" value="" style="html=1;whiteSpace=wrap;aspect=fixed;shape=isoRectangle;rotation=60;flipV=1;direction=west;fillColor=#BBCCBA;strokeColor=#82b366;container=0;" vertex="1" parent="1">
          <mxGeometry x="64.71000000000001" y="203.25" width="150" height="90" as="geometry" />
        </mxCell>
        <mxCell id="vK0zOUk7TIPSTApoR2ex-227" value="" style="html=1;whiteSpace=wrap;aspect=fixed;shape=isoRectangle;strokeWidth=1;fillColor=#E5FAE4;strokeColor=#82b366;container=0;" vertex="1" parent="1">
          <mxGeometry x="25.240000000000002" y="182.25" width="150" height="90" as="geometry" />
        </mxCell>
        <mxCell id="vK0zOUk7TIPSTApoR2ex-228" value="" style="html=1;whiteSpace=wrap;aspect=fixed;shape=isoRectangle;rotation=-240;strokeWidth=1;fillColor=#d5e8d4;strokeColor=#82b366;container=0;" vertex="1" parent="1">
          <mxGeometry x="63.24" y="248.25" width="150" height="90" as="geometry" />
        </mxCell>
        <mxCell id="vK0zOUk7TIPSTApoR2ex-229" value="" style="html=1;whiteSpace=wrap;aspect=fixed;shape=isoRectangle;rotation=60;flipV=1;direction=west;fillColor=#BBCCBA;strokeColor=#82b366;container=0;" vertex="1" parent="1">
          <mxGeometry x="-12.76" y="248.25" width="150" height="90" as="geometry" />
        </mxCell>
        <mxCell id="vK0zOUk7TIPSTApoR2ex-230" value="" style="html=1;whiteSpace=wrap;aspect=fixed;shape=isoRectangle;strokeWidth=1;fillColor=#E5FAE4;strokeColor=#82b366;container=0;" vertex="1" parent="1">
          <mxGeometry x="179.18" y="182.25" width="150" height="90" as="geometry" />
        </mxCell>
        <mxCell id="vK0zOUk7TIPSTApoR2ex-231" value="" style="html=1;whiteSpace=wrap;aspect=fixed;shape=isoRectangle;rotation=-240;strokeWidth=1;fillColor=#d5e8d4;strokeColor=#82b366;container=0;" vertex="1" parent="1">
          <mxGeometry x="217.18" y="248.25" width="150" height="90" as="geometry" />
        </mxCell>
        <mxCell id="vK0zOUk7TIPSTApoR2ex-232" value="" style="html=1;whiteSpace=wrap;aspect=fixed;shape=isoRectangle;rotation=60;flipV=1;direction=west;fillColor=#BBCCBA;strokeColor=#82b366;container=0;" vertex="1" parent="1">
          <mxGeometry x="141.18" y="248.25" width="150" height="90" as="geometry" />
        </mxCell>
        <mxCell id="vK0zOUk7TIPSTApoR2ex-233" value="" style="html=1;whiteSpace=wrap;aspect=fixed;shape=isoRectangle;strokeWidth=1;fillColor=#E5FAE4;strokeColor=#82b366;container=0;" vertex="1" parent="1">
          <mxGeometry x="101.71000000000002" y="227.25" width="150" height="90" as="geometry" />
        </mxCell>
        <mxCell id="vK0zOUk7TIPSTApoR2ex-234" value="" style="html=1;whiteSpace=wrap;aspect=fixed;shape=isoRectangle;rotation=-240;strokeWidth=1;fillColor=#d5e8d4;strokeColor=#82b366;container=0;" vertex="1" parent="1">
          <mxGeometry x="139.71000000000004" y="293.25" width="150" height="90" as="geometry" />
        </mxCell>
        <mxCell id="vK0zOUk7TIPSTApoR2ex-235" value="" style="html=1;whiteSpace=wrap;aspect=fixed;shape=isoRectangle;rotation=60;flipV=1;direction=west;fillColor=#BBCCBA;strokeColor=#82b366;container=0;" vertex="1" parent="1">
          <mxGeometry x="63.71" y="293.25" width="150" height="90" as="geometry" />
        </mxCell>
        <mxCell id="vK0zOUk7TIPSTApoR2ex-236" value="" style="html=1;whiteSpace=wrap;aspect=fixed;shape=isoRectangle;strokeWidth=1;fillColor=#E5FAE4;strokeColor=#82b366;container=0;" vertex="1" parent="1">
          <mxGeometry x="256.12" y="227.25" width="150" height="90" as="geometry" />
        </mxCell>
        <mxCell id="vK0zOUk7TIPSTApoR2ex-237" value="" style="html=1;whiteSpace=wrap;aspect=fixed;shape=isoRectangle;rotation=-240;strokeWidth=1;fillColor=#d5e8d4;strokeColor=#82b366;container=0;" vertex="1" parent="1">
          <mxGeometry x="294.12" y="293.25" width="150" height="90" as="geometry" />
        </mxCell>
        <mxCell id="vK0zOUk7TIPSTApoR2ex-238" value="" style="html=1;whiteSpace=wrap;aspect=fixed;shape=isoRectangle;rotation=60;flipV=1;direction=west;fillColor=#BBCCBA;strokeColor=#82b366;container=0;" vertex="1" parent="1">
          <mxGeometry x="218.12" y="293.25" width="150" height="90" as="geometry" />
        </mxCell>
        <mxCell id="vK0zOUk7TIPSTApoR2ex-239" value="" style="html=1;whiteSpace=wrap;aspect=fixed;shape=isoRectangle;strokeWidth=1;fillColor=#E5FAE4;strokeColor=#82b366;container=0;" vertex="1" parent="1">
          <mxGeometry x="178.64999999999998" y="272.25" width="150" height="90" as="geometry" />
        </mxCell>
        <mxCell id="vK0zOUk7TIPSTApoR2ex-240" value="" style="html=1;whiteSpace=wrap;aspect=fixed;shape=isoRectangle;rotation=-240;strokeWidth=1;fillColor=#d5e8d4;strokeColor=#82b366;container=0;" vertex="1" parent="1">
          <mxGeometry x="216.64999999999998" y="338.25" width="150" height="90" as="geometry" />
        </mxCell>
        <mxCell id="vK0zOUk7TIPSTApoR2ex-241" value="" style="html=1;whiteSpace=wrap;aspect=fixed;shape=isoRectangle;rotation=60;flipV=1;direction=west;fillColor=#BBCCBA;strokeColor=#82b366;container=0;" vertex="1" parent="1">
          <mxGeometry x="140.64999999999998" y="338.25" width="150" height="90" as="geometry" />
        </mxCell>
        <mxCell id="vK0zOUk7TIPSTApoR2ex-242" value="" style="html=1;whiteSpace=wrap;aspect=fixed;shape=isoRectangle;strokeWidth=1;fillColor=#E5FAE4;strokeColor=#82b366;container=0;" vertex="1" parent="1">
          <mxGeometry x="332.5899999999999" y="272.25" width="150" height="90" as="geometry" />
        </mxCell>
        <mxCell id="vK0zOUk7TIPSTApoR2ex-243" value="" style="html=1;whiteSpace=wrap;aspect=fixed;shape=isoRectangle;rotation=-240;strokeWidth=1;fillColor=#d5e8d4;strokeColor=#82b366;container=0;" vertex="1" parent="1">
          <mxGeometry x="370.5899999999999" y="338.25" width="150" height="90" as="geometry" />
        </mxCell>
        <mxCell id="vK0zOUk7TIPSTApoR2ex-244" value="" style="html=1;whiteSpace=wrap;aspect=fixed;shape=isoRectangle;rotation=60;flipV=1;direction=west;fillColor=#BBCCBA;strokeColor=#82b366;container=0;" vertex="1" parent="1">
          <mxGeometry x="294.59" y="338.25" width="150" height="90" as="geometry" />
        </mxCell>
        <mxCell id="vK0zOUk7TIPSTApoR2ex-245" value="" style="html=1;whiteSpace=wrap;aspect=fixed;shape=isoRectangle;strokeWidth=1;fillColor=#E5FAE4;strokeColor=#82b366;container=0;" vertex="1" parent="1">
          <mxGeometry x="255.11999999999995" y="317.25" width="150" height="90" as="geometry" />
        </mxCell>
        <mxCell id="vK0zOUk7TIPSTApoR2ex-246" value="" style="html=1;whiteSpace=wrap;aspect=fixed;shape=isoRectangle;rotation=-240;strokeWidth=1;fillColor=#d5e8d4;strokeColor=#82b366;container=0;" vertex="1" parent="1">
          <mxGeometry x="293.11999999999995" y="383.25" width="150" height="90" as="geometry" />
        </mxCell>
        <mxCell id="vK0zOUk7TIPSTApoR2ex-247" value="" style="html=1;whiteSpace=wrap;aspect=fixed;shape=isoRectangle;rotation=60;flipV=1;direction=west;fillColor=#BBCCBA;strokeColor=#82b366;container=0;" vertex="1" parent="1">
          <mxGeometry x="217.11999999999995" y="383.25" width="150" height="90" as="geometry" />
        </mxCell>
        <mxCell id="vK0zOUk7TIPSTApoR2ex-248" value="" style="html=1;whiteSpace=wrap;aspect=fixed;shape=isoRectangle;strokeWidth=1;fillColor=#E5FAE4;strokeColor=#82b366;container=0;" vertex="1" parent="1">
          <mxGeometry x="409.53" y="317.25" width="150" height="90" as="geometry" />
        </mxCell>
        <mxCell id="vK0zOUk7TIPSTApoR2ex-249" value="" style="html=1;whiteSpace=wrap;aspect=fixed;shape=isoRectangle;rotation=-240;strokeWidth=1;fillColor=#EAFFE9;strokeColor=#82b366;container=0;" vertex="1" parent="1">
          <mxGeometry x="447.53" y="383.25" width="150" height="90" as="geometry" />
        </mxCell>
        <mxCell id="vK0zOUk7TIPSTApoR2ex-250" value="" style="html=1;whiteSpace=wrap;aspect=fixed;shape=isoRectangle;rotation=60;flipV=1;direction=west;fillColor=#BBCCBA;strokeColor=#82b366;container=0;" vertex="1" parent="1">
          <mxGeometry x="371.53" y="383.25" width="150" height="90" as="geometry" />
        </mxCell>
        <mxCell id="vK0zOUk7TIPSTApoR2ex-251" value="" style="html=1;whiteSpace=wrap;aspect=fixed;shape=isoRectangle;strokeWidth=1;fillColor=#E5FAE4;strokeColor=#82b366;container=0;" vertex="1" parent="1">
          <mxGeometry x="332.05999999999995" y="362.25" width="150" height="90" as="geometry" />
        </mxCell>
        <mxCell id="vK0zOUk7TIPSTApoR2ex-252" value="" style="html=1;whiteSpace=wrap;aspect=fixed;shape=isoRectangle;rotation=-240;strokeWidth=1;fillColor=#EAFFE9;strokeColor=#82b366;container=0;" vertex="1" parent="1">
          <mxGeometry x="370.05999999999995" y="428.25" width="150" height="90" as="geometry" />
        </mxCell>
        <mxCell id="vK0zOUk7TIPSTApoR2ex-253" value="" style="html=1;whiteSpace=wrap;aspect=fixed;shape=isoRectangle;rotation=60;flipV=1;direction=west;fillColor=#bbccbb;strokeColor=#82b366;container=0;" vertex="1" parent="1">
          <mxGeometry x="294.06" y="428.25" width="150" height="90" as="geometry" />
        </mxCell>
        <mxCell id="vK0zOUk7TIPSTApoR2ex-254" value="" style="html=1;whiteSpace=wrap;aspect=fixed;shape=isoRectangle;strokeWidth=1;fillColor=#E5FAE4;strokeColor=#82b366;container=0;" vertex="1" parent="1">
          <mxGeometry x="102.71000000000002" y="48.25" width="150" height="90" as="geometry" />
        </mxCell>
        <mxCell id="vK0zOUk7TIPSTApoR2ex-255" value="" style="html=1;whiteSpace=wrap;aspect=fixed;shape=isoRectangle;rotation=-240;strokeWidth=1;fillColor=#d5e8d4;strokeColor=#82b366;container=0;" vertex="1" parent="1">
          <mxGeometry x="140.71000000000004" y="114.25" width="150" height="90" as="geometry" />
        </mxCell>
        <mxCell id="vK0zOUk7TIPSTApoR2ex-256" value="" style="html=1;whiteSpace=wrap;aspect=fixed;shape=isoRectangle;rotation=60;flipV=1;direction=west;fillColor=#BBCCBA;strokeColor=#82b366;container=0;" vertex="1" parent="1">
          <mxGeometry x="64.71000000000001" y="114.25" width="150" height="90" as="geometry" />
        </mxCell>
        <mxCell id="vK0zOUk7TIPSTApoR2ex-257" value="" style="html=1;whiteSpace=wrap;aspect=fixed;shape=isoRectangle;strokeWidth=1;fillColor=#E5FAE4;strokeColor=#82b366;container=0;" vertex="1" parent="1">
          <mxGeometry x="25.240000000000002" y="93.25" width="150" height="90" as="geometry" />
        </mxCell>
        <mxCell id="vK0zOUk7TIPSTApoR2ex-258" value="" style="html=1;whiteSpace=wrap;aspect=fixed;shape=isoRectangle;rotation=-240;strokeWidth=1;fillColor=#d5e8d4;strokeColor=#82b366;container=0;" vertex="1" parent="1">
          <mxGeometry x="63.24" y="159.25" width="150" height="90" as="geometry" />
        </mxCell>
        <mxCell id="vK0zOUk7TIPSTApoR2ex-259" value="" style="html=1;whiteSpace=wrap;aspect=fixed;shape=isoRectangle;rotation=60;flipV=1;direction=west;fillColor=#BBCCBA;strokeColor=#82b366;container=0;" vertex="1" parent="1">
          <mxGeometry x="-12.76" y="159.25" width="150" height="90" as="geometry" />
        </mxCell>
        <mxCell id="vK0zOUk7TIPSTApoR2ex-261" value="" style="html=1;whiteSpace=wrap;aspect=fixed;shape=isoRectangle;strokeWidth=1;fillColor=#E5FAE4;strokeColor=#82b366;container=0;" vertex="1" parent="1">
          <mxGeometry x="179.18" y="93.25" width="150" height="90" as="geometry" />
        </mxCell>
        <mxCell id="vK0zOUk7TIPSTApoR2ex-262" value="" style="html=1;whiteSpace=wrap;aspect=fixed;shape=isoRectangle;rotation=-240;strokeWidth=1;fillColor=#d5e8d4;strokeColor=#82b366;container=0;" vertex="1" parent="1">
          <mxGeometry x="217.18" y="159.25" width="150" height="90" as="geometry" />
        </mxCell>
        <mxCell id="vK0zOUk7TIPSTApoR2ex-263" value="" style="html=1;whiteSpace=wrap;aspect=fixed;shape=isoRectangle;rotation=60;flipV=1;direction=west;fillColor=#BBCCBA;strokeColor=#82b366;container=0;" vertex="1" parent="1">
          <mxGeometry x="141.18" y="159.25" width="150" height="90" as="geometry" />
        </mxCell>
        <mxCell id="vK0zOUk7TIPSTApoR2ex-264" value="" style="html=1;whiteSpace=wrap;aspect=fixed;shape=isoRectangle;strokeWidth=1;fillColor=#E5FAE4;strokeColor=#82b366;container=0;" vertex="1" parent="1">
          <mxGeometry x="101.71000000000002" y="138.25" width="150" height="90" as="geometry" />
        </mxCell>
        <mxCell id="vK0zOUk7TIPSTApoR2ex-265" value="" style="html=1;whiteSpace=wrap;aspect=fixed;shape=isoRectangle;rotation=-240;strokeWidth=1;fillColor=#d5e8d4;strokeColor=#82b366;container=0;" vertex="1" parent="1">
          <mxGeometry x="139.71000000000004" y="204.25" width="150" height="90" as="geometry" />
        </mxCell>
        <mxCell id="vK0zOUk7TIPSTApoR2ex-266" value="" style="html=1;whiteSpace=wrap;aspect=fixed;shape=isoRectangle;rotation=60;flipV=1;direction=west;fillColor=#BBCCBA;strokeColor=#82b366;container=0;" vertex="1" parent="1">
          <mxGeometry x="63.71" y="204.25" width="150" height="90" as="geometry" />
        </mxCell>
        <mxCell id="vK0zOUk7TIPSTApoR2ex-267" value="" style="html=1;whiteSpace=wrap;aspect=fixed;shape=isoRectangle;strokeWidth=1;fillColor=#E5FAE4;strokeColor=#82b366;container=0;" vertex="1" parent="1">
          <mxGeometry x="256.12" y="138.25" width="150" height="90" as="geometry" />
        </mxCell>
        <mxCell id="vK0zOUk7TIPSTApoR2ex-268" value="" style="html=1;whiteSpace=wrap;aspect=fixed;shape=isoRectangle;rotation=-240;strokeWidth=1;fillColor=#d5e8d4;strokeColor=#82b366;container=0;" vertex="1" parent="1">
          <mxGeometry x="294.12" y="204.25" width="150" height="90" as="geometry" />
        </mxCell>
        <mxCell id="vK0zOUk7TIPSTApoR2ex-269" value="" style="html=1;whiteSpace=wrap;aspect=fixed;shape=isoRectangle;rotation=60;flipV=1;direction=west;fillColor=#BBCCBA;strokeColor=#82b366;container=0;" vertex="1" parent="1">
          <mxGeometry x="218.12" y="204.25" width="150" height="90" as="geometry" />
        </mxCell>
        <mxCell id="vK0zOUk7TIPSTApoR2ex-270" value="" style="html=1;whiteSpace=wrap;aspect=fixed;shape=isoRectangle;strokeWidth=1;fillColor=#E5FAE4;strokeColor=#82b366;container=0;" vertex="1" parent="1">
          <mxGeometry x="178.64999999999998" y="183.25" width="150" height="90" as="geometry" />
        </mxCell>
        <mxCell id="vK0zOUk7TIPSTApoR2ex-271" value="" style="html=1;whiteSpace=wrap;aspect=fixed;shape=isoRectangle;rotation=-240;strokeWidth=1;fillColor=#d5e8d4;strokeColor=#82b366;container=0;" vertex="1" parent="1">
          <mxGeometry x="216.64999999999998" y="249.25" width="150" height="90" as="geometry" />
        </mxCell>
        <mxCell id="vK0zOUk7TIPSTApoR2ex-272" value="" style="html=1;whiteSpace=wrap;aspect=fixed;shape=isoRectangle;rotation=60;flipV=1;direction=west;fillColor=#BBCCBA;strokeColor=#82b366;container=0;" vertex="1" parent="1">
          <mxGeometry x="140.64999999999998" y="249.25" width="150" height="90" as="geometry" />
        </mxCell>
        <mxCell id="vK0zOUk7TIPSTApoR2ex-273" value="" style="html=1;whiteSpace=wrap;aspect=fixed;shape=isoRectangle;strokeWidth=1;fillColor=#E5FAE4;strokeColor=#82b366;container=0;" vertex="1" parent="1">
          <mxGeometry x="332.5899999999999" y="183.25" width="150" height="90" as="geometry" />
        </mxCell>
        <mxCell id="vK0zOUk7TIPSTApoR2ex-274" value="" style="html=1;whiteSpace=wrap;aspect=fixed;shape=isoRectangle;rotation=-240;strokeWidth=1;fillColor=#d5e8d4;strokeColor=#82b366;container=0;" vertex="1" parent="1">
          <mxGeometry x="370.5899999999999" y="249.25" width="150" height="90" as="geometry" />
        </mxCell>
        <mxCell id="vK0zOUk7TIPSTApoR2ex-275" value="" style="html=1;whiteSpace=wrap;aspect=fixed;shape=isoRectangle;rotation=60;flipV=1;direction=west;fillColor=#BBCCBA;strokeColor=#82b366;container=0;" vertex="1" parent="1">
          <mxGeometry x="294.59" y="249.25" width="150" height="90" as="geometry" />
        </mxCell>
        <mxCell id="vK0zOUk7TIPSTApoR2ex-276" value="" style="html=1;whiteSpace=wrap;aspect=fixed;shape=isoRectangle;strokeWidth=1;fillColor=#E5FAE4;strokeColor=#82b366;container=0;" vertex="1" parent="1">
          <mxGeometry x="255.11999999999995" y="228.25" width="150" height="90" as="geometry" />
        </mxCell>
        <mxCell id="vK0zOUk7TIPSTApoR2ex-277" value="" style="html=1;whiteSpace=wrap;aspect=fixed;shape=isoRectangle;rotation=-240;strokeWidth=1;fillColor=#d5e8d4;strokeColor=#82b366;container=0;" vertex="1" parent="1">
          <mxGeometry x="293.11999999999995" y="294.25" width="150" height="90" as="geometry" />
        </mxCell>
        <mxCell id="vK0zOUk7TIPSTApoR2ex-278" value="" style="html=1;whiteSpace=wrap;aspect=fixed;shape=isoRectangle;rotation=60;flipV=1;direction=west;fillColor=#BBCCBA;strokeColor=#82b366;container=0;" vertex="1" parent="1">
          <mxGeometry x="217.11999999999995" y="294.25" width="150" height="90" as="geometry" />
        </mxCell>
        <mxCell id="vK0zOUk7TIPSTApoR2ex-279" value="" style="html=1;whiteSpace=wrap;aspect=fixed;shape=isoRectangle;strokeWidth=1;fillColor=#e5fae4;strokeColor=#82b366;container=0;" vertex="1" parent="1">
          <mxGeometry x="409.53" y="228.25" width="150" height="90" as="geometry" />
        </mxCell>
        <mxCell id="vK0zOUk7TIPSTApoR2ex-280" value="" style="html=1;whiteSpace=wrap;aspect=fixed;shape=isoRectangle;rotation=-240;strokeWidth=1;fillColor=#EAFFE9;strokeColor=#82b366;container=0;" vertex="1" parent="1">
          <mxGeometry x="447.53" y="294.25" width="150" height="90" as="geometry" />
        </mxCell>
        <mxCell id="vK0zOUk7TIPSTApoR2ex-281" value="" style="html=1;whiteSpace=wrap;aspect=fixed;shape=isoRectangle;rotation=60;flipV=1;direction=west;fillColor=#BBCCBA;strokeColor=#82b366;container=0;" vertex="1" parent="1">
          <mxGeometry x="371.53" y="294.25" width="150" height="90" as="geometry" />
        </mxCell>
        <mxCell id="vK0zOUk7TIPSTApoR2ex-282" value="" style="html=1;whiteSpace=wrap;aspect=fixed;shape=isoRectangle;strokeWidth=1;fillColor=#e5fae4;strokeColor=#82b366;container=0;" vertex="1" parent="1">
          <mxGeometry x="332.05999999999995" y="273.25" width="150" height="90" as="geometry" />
        </mxCell>
        <mxCell id="vK0zOUk7TIPSTApoR2ex-283" value="" style="html=1;whiteSpace=wrap;aspect=fixed;shape=isoRectangle;rotation=-240;strokeWidth=1;fillColor=#EAFFE9;strokeColor=#82b366;container=0;" vertex="1" parent="1">
          <mxGeometry x="370.05999999999995" y="339.25" width="150" height="90" as="geometry" />
        </mxCell>
        <mxCell id="vK0zOUk7TIPSTApoR2ex-284" value="" style="html=1;whiteSpace=wrap;aspect=fixed;shape=isoRectangle;rotation=60;flipV=1;direction=west;fillColor=#bbccbb;strokeColor=#82b366;container=0;" vertex="1" parent="1">
          <mxGeometry x="294.06" y="339.25" width="150" height="90" as="geometry" />
        </mxCell>
      </root>
    </mxGraphModel>
  </diagram>
</mxfile>
